<?xml version="1.0" encoding="utf-8"?>
<!-- Generator: Adobe Illustrator 21.1.0, SVG Export Plug-In . SVG Version: 6.00 Build 0)  -->
<svg version="1.1" id="Layer_1" xmlns="http://www.w3.org/2000/svg" xmlns:xlink="http://www.w3.org/1999/xlink" x="0px" y="0px"
	 viewBox="0 0 194.2 106.3" style="enable-background:new 0 0 194.2 106.3;" xml:space="preserve">
<style type="text/css">
	.st0{clip-path:url(#SVGID_2_);}
	.st1{fill:#8F63BC;}
	.st2{fill:#291755;}
	.st3{fill:#FC69B9;}
</style>
<g>
	<g>
		<defs>
			<rect id="SVGID_1_" x="120.3" width="74.7" height="107.3"/>
		</defs>
		<clipPath id="SVGID_2_">
			<use xlink:href="#SVGID_1_"  style="overflow:visible;"/>
		</clipPath>
		<g class="st0">
			<path class="st1" d="M165.9,59.7c3.5-5.3,5.1-10.5,8-20.7c2.9-9.9,2.6-11.2,5.9-22.1c3-9.8,4.8-14,8.1-17.9c-3,1.3-5.6,4.4-7.8,7
				c-3.5,4.1-5.4,8.4-8.5,18.7c-3.4,11.3-3.1,12.7-6.1,23c-3.1,10.6-4.7,15.9-8.4,21.5c-0.7,1.1-1.4,2.1-2.2,3.1
				c0.1-0.1,0.3-0.2,0.4-0.4C158.5,68.8,162.4,65,165.9,59.7z"/>
			<path class="st1" d="M134.2,91.3c-0.9,0.8-1.7,1.7-2.7,2.7c-2.6,2.6-5.4,5.4-8.2,9.3c-1.2,1.7-2.3,3.3-3.2,4.9h5.1
				c1.4-4.1,3.8-9.7,8-15.6C133.6,92.1,133.9,91.7,134.2,91.3z"/>
			<path class="st2" d="M185.2,5.8c-3.2,3.7-4.9,7.6-7.7,16.9c-3.1,10.2-2.8,11.4-5.5,20.7c-2.8,9.5-4.3,14.4-7.5,19.4
				s-6.9,8.5-9.9,11.4c-4.9,4.8-7,5.5-12.4,11c-2.3,2.3-4.8,4.9-7.4,8.4c-4,5.5-6.2,10.7-7.5,14.6h59.6h9L196.7-1
				C193-2.7,187.6,2.9,185.2,5.8z"/>
			<path class="st3" d="M185.9-1c-3.4,4-5.2,8.1-8.1,17.9c-3.3,10.9-3,12.2-5.9,22.1c-3,10.2-4.6,15.3-8,20.7
				c-3.5,5.3-7.5,9.1-10.6,12.2c-0.1,0.1-0.3,0.2-0.4,0.4c-5,4.7-7.2,5.7-12.8,11.4c-2.2,2.2-4.6,4.6-6.9,7.7
				c-0.3,0.4-0.6,0.8-0.9,1.2c-4.3,5.9-6.7,11.4-8,15.6h4c1.3-3.9,3.5-9.1,7.5-14.6c2.5-3.5,5.1-6,7.4-8.4c5.4-5.5,7.4-6.3,12.4-11
				c2.9-2.8,6.6-6.4,9.9-11.4c3.3-5,4.7-9.9,7.5-19.4c2.7-9.3,2.4-10.5,5.5-20.7c2.8-9.3,4.5-13.1,7.7-16.9c2.4-2.9,5.4-6.3,8.8-6.8
				l0,0C195-1,185.9-1,185.9-1z"/>
		</g>
	</g>
</g>
</svg>
