<?xml version="1.0" encoding="utf-8"?>
<!-- Generator: Adobe Illustrator 21.1.0, SVG Export Plug-In . SVG Version: 6.00 Build 0)  -->
<svg version="1.1" id="Layer_1" xmlns="http://www.w3.org/2000/svg" xmlns:xlink="http://www.w3.org/1999/xlink" x="0px" y="0px"
	 viewBox="0 0 300 300" style="enable-background:new 0 0 300 300;" xml:space="preserve">
<style type="text/css">
	.st0{fill:#1D0D42;}
	.st1{fill:#FFDC8E;}
	.st2{fill:#4D2D54;}
	.st3{fill:#D1A7F1;}
	.st4{fill:#8190EB;}
	.st5{fill:#FBF5F9;}
	.st6{fill:#E16D90;}
	.st7{fill:#F0D9E9;}
	.st8{fill:#FF9AA5;}
	.st9{fill:#FFFFFF;}
	.st10{fill:#FCDADE;stroke:#FFFFFF;stroke-miterlimit:10;}
</style>
<g>
	<ellipse class="st0" cx="140.9" cy="276.3" rx="92" ry="8.6"/>
	<g>
		<g>
			<path class="st1" d="M105.4,53.5c1.8-0.8,3.2-2.3,4-4.1c0.8-1.7,1.2-3.4,2.4-4.9c1.2-1.4,2.9-2.2,4.6-2.8
				c2.1-0.7,4.4-1.1,6.4-2.3c1.8-1,3.2-2.7,4.1-4.6c0.6-1.4,0.9-2.9,1.1-4.4c0.2-1.2,0.4-2.5,0.5-3.7c-3.4,3.5-7.4,6.6-12.1,7.7
				c-3.2,0.7-6.6,0.5-9.6,1.9c-3.1,1.4-5.3,4.2-7.1,7c-0.8,1.2-1.5,2.4-2.2,3.6c-0.7,1.3-1.5,2.7-1,4.1
				C97.4,54.2,103,54.6,105.4,53.5z"/>
			<g>
				<path class="st2" d="M105.8,54.2c2.4-1.4,3.7-3.1,4.8-5.6c2.6-5.7,5.9-5.4,10.9-7.6c6-2.6,6.9-7.9,7.7-13.9
					c0.1-0.7-0.7-1.3-1.3-0.7c-2.9,2.9-6.2,5.8-10.2,7.1c-3.1,1-6.5,0.8-9.7,1.8c-4.6,1.4-7.4,5.2-9.9,9.1c-1.7,2.6-4.2,6.3-1.3,8.9
					c2.2,2,6.1,1.9,8.7,1c0.9-0.3,0.5-1.8-0.4-1.4c-1.6,0.6-4.1,0.9-5.7,0.1c-4.1-2.1-1.3-5.9,0-7.9c3.1-4.9,6.2-8,12.1-8.9
					c7.3-1.1,12.1-3.4,17.4-8.7c-0.4-0.2-0.8-0.5-1.3-0.7c-0.6,4-0.7,7.8-3.8,10.7c-2.7,2.6-5.9,2.7-9.2,4.2
					c-5.2,2.5-4.9,8.5-9.8,11.3C104.2,53.4,105,54.7,105.8,54.2z"/>
			</g>
		</g>
		<g>
			<path class="st3" d="M101.2,50.5c3.6-2.4,2.2-7.2,4.9-10.2c1.1-1.2,2.7-1.8,4.3-2.2c2.6-0.7,5.3-1,8-1.6c2.6-0.6,5.3-1.6,7.3-3.3
				c2.1-1.8,3.5-4.5,3.1-7.2c-1.3,1.9-3.2,3.4-5.4,4.1c-3.1,1-6.4,0.4-9.7,0.4c-2.5,0-5,0.3-7.5,0.7c-0.9,0.2-1.9,0.3-2.8,0.6
				c-1.1,0.4-2,0.9-3,1.5c-2,1.3-3.7,2.9-5.1,4.8c-2.1,2.8-3.4,6.4-2.8,9.8c0.3,1.7,1.2,3.3,3,3.5C97.6,51.6,99.5,51.6,101.2,50.5z"
				/>
			<g>
				<path class="st2" d="M101.7,51c2.1-1.8,2.5-3.8,3.2-6.3c1.8-6.2,7.5-6.2,12.8-7.4c5.9-1.3,12-4.5,11.8-11.4c0-0.8-1-0.9-1.4-0.4
					c-5,6.6-14.9,3.5-22.1,4.9c-4.9,0.9-8.9,3.8-11.7,7.9c-4.4,6.6-2.7,17.7,7.3,12.8c0.9-0.4,0.1-1.7-0.8-1.3
					c-6.6,3.3-8.6-4.1-6.4-8.8c1-2.1,2.5-4,4.3-5.5c4.1-3.6,9.6-4.3,15-4.4c6.3,0,11.5,0.7,15.7-4.8c-0.5-0.1-0.9-0.3-1.4-0.4
					c0.3,11.2-13.6,8.8-20.3,12.2c-5,2.6-3.2,8.5-7.1,11.8C99.9,50.6,101,51.6,101.7,51z"/>
			</g>
		</g>
		<g>
			<path class="st4" d="M91,38.5c1-1.8,2.3-3.4,3.9-4.6c4.8-3.8,11.3-5.1,17.3-5c3.1,0,6.3,0.6,9.4,0.3c3.1-0.3,6.4-1.6,7.9-4.3
				c0,2.2-1.3,4.4-3.2,5.6c-1.3,0.8-2.8,1.1-4.3,1.3c-3.4,0.6-6.9,0.9-10.3,1.1c-3.3,0.2-6.9,0.8-9.7,2.7c-2.7,1.8-4.5,5.6-5.1,8.8
				c-0.2,1.2-0.3,2.4-0.8,3.5c-0.5,1.1-1.5,2.1-2.7,2.1c-1.1,0-1.7-0.5-2.3-1.4C88.8,45.6,89.4,41.4,91,38.5z"/>
			<g>
				<path class="st2" d="M91.6,38.9c5.2-8.5,15.2-9.5,24.2-9c5.4,0.3,10.8,0.2,14.2-4.6c-0.5-0.1-0.9-0.3-1.4-0.4
					c-1.3,10-19.1,5.7-26,9.3c-2.8,1.5-4.7,4-5.9,7c-0.4,0.9-0.6,4.2-1.2,4.8c-4.1,1.8-5.9,1-5.3-2.3C90.4,41.9,90.9,40.3,91.6,38.9
					c0.4-0.9-0.9-1.6-1.3-0.8c-1.5,3.3-2.9,9.2,0.8,11.8c4.1,3,5.5-2.7,6.3-5.5c1.5-5.5,4.1-9.1,10-10.4c4.2-0.9,8.5-0.8,12.7-1.4
					c5.2-0.8,9.3-2.2,10-7.9c0.1-0.8-1-0.9-1.4-0.4c-5,7.1-17,2.8-24.4,4.4c-5.8,1.2-10.9,4.1-14,9.2C89.8,38.9,91.1,39.7,91.6,38.9
					z"/>
			</g>
		</g>
	</g>
	<g>
		<g>
			<path class="st1" d="M126.4,62.1c2.3-0.2,4.3-1.3,5.8-2.7c1.4-1.4,2.4-2.9,4.2-4c1.8-1,4-1.3,6.1-1.4c2.7-0.1,5.4,0.2,8-0.3
				c2.4-0.5,4.5-1.6,6-3.2c1.1-1.1,1.8-2.5,2.6-3.9c0.6-1.1,1.2-2.3,1.7-3.4c-4.9,2.4-10.4,4.2-16.2,3.9c-3.9-0.2-7.8-1.4-11.6-1
				c-3.9,0.4-7.3,2.5-10.2,4.6c-1.2,0.9-2.4,1.8-3.6,2.8c-1.2,1-2.5,2.2-2.4,3.6C117,60.5,123.3,62.5,126.4,62.1z"/>
			<g>
				<path class="st2" d="M126.6,62.8c3.1-0.6,4.9-1.9,7.1-4c4.6-4.4,8.6-3.7,14.4-4.1c7.4-0.5,10.2-5,13.3-11.1c0.3-0.7-0.3-1.3-1-1
					c-4.2,2-8.5,3.6-13.2,3.8c-3.7,0.2-7.2-0.8-10.9-1c-6.2-0.4-11,2.5-15.8,6.1c-2.4,1.8-6,4.4-3.8,7.7c1.9,2.8,6.5,3.8,9.6,3.6
					c1,0,1-1.5,0-1.5c-1.9,0.1-4.4-0.2-6.1-1.3c-4.6-2.8,0.3-6.9,2.8-8.7c5.2-3.7,9.9-5,16.3-4.2c8,1,14.5,0,21.7-3.4
					c-0.3-0.3-0.7-0.7-1-1c-2,4-3.8,8.2-8.4,9.8c-3.5,1.2-7.3,0.3-10.9,0.8c-6.4,0.8-8.5,6.9-14.6,8C125.3,61.6,125.7,63,126.6,62.8
					z"/>
			</g>
		</g>
		<g>
			<path class="st3" d="M122.5,58c4.8-1.2,4.6-6.3,8.6-8.4c1.6-0.8,3.6-0.9,5.6-0.9c3.2,0.1,6.4,0.6,9.6,0.8c3.2,0.2,6.5,0,9.4-1
				c2.9-1.1,5.3-3.3,5.7-6c-2,1.5-4.7,2.3-7.4,2.4c-3.8,0-7.5-1.5-11.2-2.4c-2.9-0.7-5.9-1.2-8.8-1.5c-1.1-0.1-2.3-0.2-3.4-0.2
				c-1.3,0-2.6,0.3-3.9,0.6c-2.6,0.7-5.1,1.7-7.2,3.1c-3.2,2.1-5.8,5.1-6.1,8.6c-0.1,1.7,0.4,3.5,2.4,4.2
				C118,58,120.1,58.6,122.5,58z"/>
			<g>
				<path class="st2" d="M122.6,58.7c2.6-0.9,3.8-2.4,5.4-4.7c4-5.9,10.1-4.4,16.4-3.9c6.5,0.5,15.7,0.2,17.7-7.4
					c0.2-0.6-0.5-1.2-1.1-0.8c-7.8,5-17-0.4-25.3-1.5c-6.2-0.8-12,0.1-17.2,3.8c-3.1,2.2-6.5,6-5.8,10.1
					C113.3,58.8,119,59.2,122.6,58.7c1-0.1,0.5-1.6-0.4-1.4c-1.5-0.1-3.1-0.1-4.6-0.2c-1.1-1.7-2.2-3.4-3.3-5.1
					c-0.1-1.3,1.6-3.4,2.4-4.3c1.6-1.8,3.7-3.1,5.8-4.1c5.7-2.7,11.4-2.2,17.4-1c7.6,1.5,14.5,5.2,21.8,0.6
					c-0.4-0.3-0.7-0.6-1.1-0.8c-3,11.1-19.2,4.6-26.9,5.8c-6.1,0.9-6.2,7.3-11.5,9.2C121.3,57.6,121.7,59,122.6,58.7z"/>
			</g>
		</g>
		<g>
			<path class="st4" d="M114.3,43.5c1.6-1.4,3.6-2.5,5.8-3.3c6.6-2.2,14.4-1.6,21.3,0.2c3.6,0.9,7,2.4,10.7,3
				c3.7,0.6,7.8,0.3,10.4-1.9c-0.7,2.1-2.8,3.9-5.4,4.4c-1.7,0.4-3.5,0.2-5.3,0c-4.1-0.4-8.1-1.1-12.2-1.9c-3.9-0.7-8.2-1.3-12-0.3
				c-3.7,1-6.9,4.1-8.5,6.9c-0.6,1.1-1.1,2.2-2,3.2c-0.9,0.9-2.3,1.6-3.7,1.2c-1.3-0.3-1.8-1-2.3-2
				C109.7,49.7,111.6,45.8,114.3,43.5z"/>
			<g>
				<path class="st2" d="M114.8,44c8.2-6.4,19.7-4.9,29-2.1c6.2,1.9,13.1,4.3,19,0.3c-0.3-0.3-0.7-0.7-1-1
					c-4.6,9.6-24.2,0.1-32.7,1.5c-3.4,0.6-6.2,2.3-8.5,4.8c-1.1,1.2-1.6,2.8-2.7,3.9c-0.2,0.4-0.4,0.7-0.6,1.1
					c-5.1,0.5-6.9-0.8-5.4-3.7C112.3,46.8,113.4,45.4,114.8,44c0.7-0.7-0.4-1.7-1.1-1.1c-2.8,2.7-5.7,7.9-2.6,11.5
					c3.5,4.1,6.9-0.7,8.6-3.5c6.6-10.6,18.2-6.2,28.3-4.8c5.6,0.8,12.1,1.8,15-4.3c0.3-0.6-0.4-1.5-1-1c-8,5.5-19.4-1.7-28.1-2.6
					c-7.2-0.8-14.5,0.1-20.2,4.7C113,43.5,114.1,44.6,114.8,44z"/>
			</g>
		</g>
	</g>
	<g>
		<g>
			<path class="st1" d="M144.6,76.2c2.3-0.2,4.3-1.3,5.8-2.7c1.4-1.4,2.4-2.9,4.2-4c1.8-1,4-1.3,6.1-1.4c2.7-0.1,5.4,0.2,8-0.3
				c2.4-0.5,4.5-1.6,6-3.2c1.1-1.1,1.8-2.5,2.6-3.9c0.6-1.1,1.2-2.3,1.7-3.4c-4.9,2.4-10.4,4.2-16.2,3.9c-3.9-0.2-7.8-1.4-11.6-1
				c-3.9,0.4-7.3,2.5-10.2,4.6c-1.2,0.9-2.4,1.8-3.6,2.8c-1.2,1-2.5,2.2-2.4,3.6C135.2,74.5,141.5,76.5,144.6,76.2z"/>
			<g>
				<path class="st2" d="M144.8,76.9c3.1-0.6,4.9-1.9,7.1-4c4.6-4.4,8.6-3.7,14.4-4.1c7.4-0.5,10.2-5,13.3-11.1c0.3-0.7-0.3-1.3-1-1
					c-4.2,2-8.5,3.6-13.2,3.8c-3.7,0.2-7.2-0.8-10.9-1c-6.2-0.4-11,2.5-15.8,6.1c-2.4,1.8-6,4.4-3.8,7.7c1.9,2.8,6.5,3.8,9.6,3.6
					c1,0,1-1.5,0-1.5c-1.9,0.1-4.4-0.2-6.1-1.3c-4.6-2.8,0.3-6.9,2.8-8.7c5.2-3.7,9.9-5,16.3-4.2c8,1,14.5,0,21.7-3.4
					c-0.3-0.3-0.7-0.7-1-1c-2,4-3.8,8.2-8.4,9.8c-3.5,1.2-7.3,0.3-10.9,0.8c-6.4,0.8-8.5,6.9-14.6,8
					C143.5,75.6,143.9,77.1,144.8,76.9z"/>
			</g>
		</g>
		<g>
			<path class="st3" d="M140.7,72c4.8-1.2,4.6-6.3,8.6-8.4c1.6-0.8,3.6-0.9,5.6-0.9c3.2,0.1,6.4,0.6,9.6,0.8c3.2,0.2,6.5,0,9.4-1
				c2.9-1.1,5.3-3.3,5.7-6c-2,1.5-4.7,2.3-7.4,2.4c-3.8,0-7.5-1.5-11.2-2.4c-2.9-0.7-5.9-1.2-8.8-1.5c-1.1-0.1-2.3-0.2-3.4-0.2
				c-1.3,0-2.6,0.3-3.9,0.6c-2.6,0.7-5.1,1.7-7.2,3.1c-3.2,2.1-5.8,5.1-6.1,8.6c-0.1,1.7,0.4,3.5,2.4,4.2
				C136.2,72.1,138.3,72.6,140.7,72z"/>
			<g>
				<path class="st2" d="M140.9,72.7c2.6-0.9,3.8-2.4,5.4-4.7c4-5.9,10.1-4.4,16.4-3.9c6.5,0.5,15.7,0.2,17.7-7.4
					c0.2-0.6-0.5-1.2-1.1-0.8c-7.8,5-17-0.4-25.3-1.5c-6.2-0.8-12,0.1-17.2,3.8c-3.1,2.2-6.5,6-5.8,10.1
					C131.5,72.8,137.2,73.3,140.9,72.7c1-0.1,0.5-1.6-0.4-1.4c-1.5-0.1-3.1-0.1-4.6-0.2c-1.1-1.7-2.2-3.4-3.3-5.1
					c-0.1-1.3,1.6-3.4,2.4-4.3c1.6-1.8,3.7-3.1,5.8-4.1c5.7-2.7,11.4-2.2,17.4-1c7.6,1.5,14.5,5.2,21.8,0.6
					c-0.4-0.3-0.7-0.6-1.1-0.8c-3,11.1-19.2,4.6-26.9,5.8c-6.1,0.9-6.2,7.3-11.5,9.2C139.6,71.6,139.9,73,140.9,72.7z"/>
			</g>
		</g>
		<g>
			<path class="st4" d="M132.5,57.5c1.6-1.4,3.6-2.5,5.8-3.3c6.6-2.2,14.4-1.6,21.3,0.2c3.6,0.9,7,2.4,10.7,3
				c3.7,0.6,7.8,0.3,10.4-1.9c-0.7,2.1-2.8,3.9-5.4,4.4c-1.7,0.4-3.5,0.2-5.3,0c-4.1-0.4-8.1-1.1-12.2-1.9c-3.9-0.7-8.2-1.3-12-0.3
				c-3.7,1-6.9,4.1-8.5,6.9c-0.6,1.1-1.1,2.2-2,3.2c-0.9,0.9-2.3,1.6-3.7,1.2c-1.3-0.3-1.8-1-2.3-2
				C127.9,63.7,129.8,59.9,132.5,57.5z"/>
			<g>
				<path class="st2" d="M133,58c8.2-6.4,19.7-4.9,29-2.1c6.2,1.9,13.1,4.3,19,0.3c-0.3-0.3-0.7-0.7-1-1c-4.6,9.6-24.2,0.1-32.7,1.5
					c-3.4,0.6-6.2,2.3-8.5,4.8c-1.1,1.2-1.6,2.8-2.7,3.9c-0.2,0.4-0.4,0.7-0.6,1.1c-5.1,0.5-6.9-0.8-5.4-3.7
					C130.5,60.8,131.6,59.4,133,58c0.7-0.7-0.4-1.7-1.1-1.1c-2.8,2.7-5.7,7.9-2.6,11.5c3.5,4.1,6.9-0.7,8.6-3.5
					c6.6-10.6,18.2-6.2,28.3-4.8c5.6,0.8,12.1,1.8,15-4.3c0.3-0.6-0.4-1.5-1-1c-8,5.5-19.4-1.7-28.1-2.6c-7.2-0.8-14.5,0.1-20.2,4.7
					C131.2,57.6,132.3,58.6,133,58z"/>
			</g>
		</g>
	</g>
	<g>
		<g>
			<path class="st1" d="M161.4,94.4c1.1-0.5,2.1-1.2,3-2c1.7-1.7,2.9-3.8,4.4-5.6c4.1-4.6,10.1-2.4,15.4-3.5
				c3.5-0.7,6.1-2.9,8.1-5.6c0.4-0.5,0.7-1.1,1-1.6c1-2.3,0.3-4.9-0.5-7.2c-0.1,1.1,0.4,3,0.1,4c-0.2,0.5-0.3,0.7-0.7,1.1
				c-0.3,0.4-0.9,1.2-1.3,1.5c-3.7,2-8.4,1.7-12.6,1.4c-3.9-0.2-7.8-1.4-11.6-1c-3.9,0.4-7.3,2.5-10.2,4.6c-1.2,0.9-2.4,1.8-3.6,2.8
				c-2.4,1.9-5.1,5.1-3.5,8.3c0.8,1.6,2.2,2.7,3.9,3.3C155.8,95.8,158.8,95.5,161.4,94.4z"/>
			<g>
				<path class="st2" d="M161.8,95c4.2-2.2,5.6-7.2,9.6-9.4c4.1-2.3,9.3-0.6,13.8-1.8c7.3-2,10.5-8.3,8.5-15.3
					c-0.2-0.8-1.5-0.7-1.5,0.2c0.3,6-3.4,7.2-8.9,7.4c-3.9,0.1-7.7-0.6-11.5-1c-7.2-0.8-12.5,2-18,6.4c-3.1,2.4-7,6-4.9,10.3
					c2.3,4.8,8.7,4.8,12.9,3.3c0.9-0.3,0.5-1.8-0.4-1.4c-2.4,0.9-4.3,1.1-6.7,0.4c-4.5-1.2-5.2-6.5-2.1-9.5c2.1-2,4.6-3.9,7.1-5.4
					c6.6-3.9,12.5-2.1,19.7-1.7c3.6,0.2,9.1,0.7,12.3-1.6c2.7-2,2.4-4.1,2.2-7.1c-0.5,0.1-1,0.1-1.5,0.2c1.7,5.9-0.7,11.1-6.7,13.2
					c-3.5,1.2-7.3,0.4-10.8,0.9c-6.9,1-8,7.7-13.6,10.7C160.1,94.2,160.9,95.5,161.8,95z"/>
			</g>
		</g>
		<g>
			<path class="st3" d="M156.2,87.5c4.8-1.2,4.6-6.3,8.6-8.4c1.6-0.8,3.6-0.9,5.6-0.9c3.2,0.1,6.4,0.6,9.6,0.8
				c3.4,0.2,7.9,0.5,10.8-1.7c1.3-1.1,2.3-2.7,2.5-4.4c0.2-1.4-0.2-2.8-0.6-4.2c0.1,0.8,0.2,1.7,0,2.5c-0.1,0.8-0.4,1.7-1.1,2.3
				c-1.7,1.6-5,0.9-7.1,0.6c-2.8-0.5-5.4-1.5-8.1-2.2c-2.9-0.7-5.9-1.2-8.8-1.5c-1.1-0.1-2.3-0.2-3.4-0.2c-1.3,0-2.6,0.3-3.9,0.6
				c-2.6,0.7-5.1,1.7-7.2,3.1c-3.2,2.1-5.8,5.1-6.1,8.6c-0.1,1.7,0.4,3.5,2.4,4.2C151.7,87.6,153.8,88.1,156.2,87.5z"/>
			<g>
				<path class="st2" d="M156.4,88.2c3.1-1.1,4-3.1,5.9-5.6c4.6-6,13.3-3,19.7-2.8c7.7,0.3,13.4-3.1,11.4-11.4
					c-0.2-0.8-1.5-0.7-1.5,0.2c0.6,7.6-8.2,4.5-12,3.4c-3.5-1-6.9-1.8-10.5-2.2c-6.2-0.8-12,0.1-17.2,3.8c-3.1,2.2-6.5,6-5.8,10.1
					C147,88.3,152.7,88.8,156.4,88.2c1-0.1,0.5-1.6-0.4-1.4c-3.3,1.1-5.4,0.2-6.3-2.8c-1.7-1.1-2.1-2.3-1.2-3.7c0.3-1.7,1.8-3,3-4.1
					c2.5-2.3,5.9-3.9,9.2-4.7c6.2-1.5,12.9,0.3,18.9,2c5.8,1.7,14.6,4,13.9-4.9c-0.5,0.1-1,0.1-1.5,0.2c3.5,14.2-16.7,8.1-23.8,8.7
					c-6.8,0.6-6.5,7.2-12.2,9.2C155.1,87.1,155.4,88.5,156.4,88.2z"/>
			</g>
		</g>
		<g>
			<path class="st4" d="M148,73c1.6-1.4,3.6-2.5,5.8-3.3c6.6-2.2,14.4-1.6,21.3,0.2c4.4,1.2,8.1,2.9,12.8,3c1.6,0,2.5-0.3,3.5-1.6
				c0.6-0.7,0.7-1.7,0.7-2.6c0-1.1-0.2-2.3-0.9-3c0.3-0.2,0.7,0,0.9,0.2c1.6,1.6,2.5,4,1.9,6.1c-1.1,4-5.2,3.7-8.4,3.4
				c-4.1-0.4-8.1-1.1-12.2-1.9c-3.9-0.7-8.2-1.3-12-0.3c-3.7,1-6.9,4.1-8.5,6.9c-0.6,1.1-1.1,2.2-2,3.2c-0.9,0.9-2.3,1.6-3.7,1.2
				c-1.3-0.3-1.8-1-2.3-2C143.4,79.2,145.3,75.4,148,73z"/>
			<g>
				<path class="st2" d="M148.5,73.6c10.7-8.4,23.4-2.9,35-0.4c5.3,1.1,10.9-0.1,8.8-6.8c-0.4-1-0.3-0.1,0.4,2.7
					c1.2,2.2,0.6,3.6-1.7,4.3c-2.1,1.4-2.3,1.6-4.4,1.4c-2.9-0.2-5.9-0.7-8.8-1.2c-4.8-0.8-9.9-2.2-14.8-1.4c-3.2,0.5-6,2-8.3,4.3
					c-1.3,1.3-1.9,3.3-3.1,4.4c-0.2,0.4-0.4,0.7-0.6,1.1c-2-0.7-3.9-1.3-5.9-2C144.1,78.3,147.4,74.7,148.5,73.6
					c0.7-0.7-0.4-1.7-1.1-1.1c-2.8,2.8-6.8,11.2-0.5,12.8c2.9,0.8,4.7-1.6,6-3.7c4-6.5,9.3-8.8,16.9-7.9c5.3,0.6,10.4,1.9,15.7,2.4
					c2.5,0.2,5.4,0.5,7.4-1.2c2.5-2.1,2.6-10.6-2-10c-0.5,0.1-0.7,0.7-0.4,1.1c1.7,2.6,0.8,4.7-2.6,6.1c-1.6-0.1-3.2-0.3-4.7-0.7
					c-2.1-0.5-4.1-1.3-6.2-1.9c-3.3-0.9-6.6-1.7-10.1-1.9c-6.9-0.6-13.8,0.4-19.4,4.8C146.7,73.1,147.8,74.1,148.5,73.6z"/>
			</g>
		</g>
	</g>
	<g>
		<g>
			<path class="st1" d="M174.9,222.9c3,0,6-0.3,8.8-1.3c5.5-2,10.2-6.6,15.9-8.1c6.6-1.7,10.7,2,16.1,5.5c3.5,2.3,7.6,3.1,11.7,3.4
				c3.2,0.2,6.4,0.1,9.3-1.4c3.8-1.9,6.6-5.9,8.3-10.3c1.7-4.4,2.5-9.1,3.2-13.9c-6.5,10.2-18.8,14.8-29.2,11
				c-4.2-1.5-6.9-5-10.7-7.3c-4.4-2.7-9.6-2.1-14.5-1.3c-2.7,0.4-5.3,0.9-7.9,1.8c-1.4,0.5-2.8,1.1-4.2,1.7c-3.1,1.3-6.2,2.7-9,4.7
				c-1.3,0.9-2.5,2.1-3.8,2.9c-1.3,0.8-2.3,1.8-3.1,3.3C161.4,221.5,170.3,222.9,174.9,222.9z"/>
			<g>
				<path class="st2" d="M174.9,223.6c3.7-0.1,7.2-0.5,10.7-2c4.4-1.9,8.1-5.3,12.7-6.9c9.5-3.3,15.7,6,24.4,7.8
					c6.2,1.3,13.2,1.2,18-3.5c5.7-5.7,7-14.3,8.3-21.9c0.1-0.8-0.9-1.3-1.4-0.6c-7.8,11.4-22.7,16-34.1,7c-3.6-2.8-6.8-5.2-11.4-5.6
					c-5.3-0.4-11.4,0.8-16.4,2.4c-4.7,1.6-9.5,3.7-13.6,6.6c-3.4,2.3-7.9,5.3-8.2,9.9C163.5,222.6,170.6,223.6,174.9,223.6
					c1,0,1-1.5,0-1.5c-3.7-0.1-10.2-0.7-9.4-5.9c0.7-5,9.4-9.6,13.4-11.5c4.9-2.3,9.7-3.9,15-4.7c3.2-0.5,6.4-1,9.6-0.3
					c3.6,0.7,6,2.7,8.9,4.9c12.2,9.5,28,4.9,36.4-7.3c-0.5-0.2-0.9-0.4-1.4-0.6c-1.3,8.2-2.8,19.5-11.2,23.7
					c-8.1,4.1-17.3-0.3-24.1-4.6c-4.6-2.9-9-4.3-14.3-2.5c-3.2,1.1-5.9,3.1-8.8,4.7c-4.6,2.7-8.9,4-14.2,4.1
					C173.9,222.2,173.9,223.7,174.9,223.6z"/>
			</g>
		</g>
		<g>
			<path class="st3" d="M170.6,215c5.9,1.7,12-0.7,17.1-4.1c4.4-2.9,9.4-6.8,14.6-7c4.7-0.1,8.3,3.6,12.2,6.1
				c4.2,2.8,9,4.3,13.9,4.4c4.9,0.1,10-1.5,13.8-5.3c3.8-3.8,5.7-9.4,7.6-14.8c-5.8,5-12.7,9.2-19.9,8.5
				c-9.6-0.9-17.1-10.2-26.2-13.8c-6-2.4-12.6-2.3-18.7-0.4c-4.9,1.5-9.6,4.1-13.9,7.3c-3.9,2.9-5.2,7-5.6,12.4
				C165.3,212,167.6,214.2,170.6,215z"/>
			<g>
				<path class="st2" d="M170.5,215.8c8.2,1.8,14.6-2.2,21.1-6.5c5.3-3.5,10.9-6.2,16.9-2.7c3.5,2.1,6.4,4.9,10.3,6.5
					c6.4,2.7,14.1,3,20.2-0.5c6.6-3.8,9.3-11.3,11.6-18.1c0.3-0.8-0.7-1.2-1.3-0.7c-5,4.2-11,8.4-17.8,8.3c-5.9,0-11-3.5-15.7-6.7
					c-8.1-5.6-15.7-10.1-25.9-8.7c-8,1.1-19.5,5.7-23.3,13.4C163.9,205.9,163.5,213.4,170.5,215.8c0.9,0.3,1.3-1.1,0.4-1.4
					c-6.8-2.4-4.9-11.7-1.2-16.1c3.2-3.9,9.3-6.8,14-8.4c10.7-3.8,19.9-1.1,28.9,5.1c5.7,3.9,11.7,8.7,19,8.7
					c7.2,0,13.6-4.3,18.9-8.8c-0.4-0.2-0.8-0.5-1.3-0.7c-2.9,8.5-6.6,17.3-16.4,19.2c-9.1,1.8-15.7-3-22.9-7.6
					c-4.6-3-9-3.1-13.9-0.7c-8.5,4-14.7,11.7-25.1,9.3C169.9,214.1,169.5,215.5,170.5,215.8z"/>
			</g>
		</g>
		<g>
			<path class="st4" d="M193.6,182.5c5.7-0.1,12.7,1.2,17.6,4.9c3.6,2.8,6.4,6.3,9.7,9.4c3.3,3,7,3.6,11.1,3.9
				c8,0.5,16.4-2.6,21.7-10c-3,11.5-13.7,18.2-24,18.9c-12,0.8-19.1-14.1-30.7-15.1c-6.5-0.6-13.2,1.3-18.6,5.6
				c-3.2,2.6-5.8,7.3-9.4,8.9c-1.9,0.9-4.3,0.7-5.7-1c-5.8-7.1,9.8-19.2,14.1-21.7C183.5,183.8,188.5,182.6,193.6,182.5z"/>
			<g>
				<path class="st2" d="M193.6,183.2c8.2,0,15,2.2,20.9,8c4.2,4.2,7.6,8.6,13.7,9.7c10.1,1.9,20-1.8,26.2-9.9
					c-0.5-0.2-0.9-0.4-1.4-0.6c-3.6,12.5-19.3,23-31.9,16.1c-9-5-14.8-13.7-26.1-12.9c-5.4,0.4-10.8,2.4-15,5.9
					c-2.3,1.9-4,4.4-6.1,6.4c-5.5,5.2-10.7,0.7-8.1-5.1C170.1,190.6,183,183.7,193.6,183.2c1,0,1-1.5,0-1.5
					c-10.2,0.4-18.4,5.2-25.2,12.7c-3.2,3.5-9.4,14.2-0.6,15.7c4.7,0.8,7.9-4,10.6-7c5.7-6.2,15.6-9.9,23.9-7.2
					c9.6,3.1,15.5,14.2,26.2,14.4c11.8,0.3,22.7-8.3,25.9-19.4c0.3-0.9-0.9-1.2-1.4-0.6c-4.1,5.4-10,8.8-16.8,9.5
					c-7.2,0.7-12.8-1.4-17.9-6.6c-3.3-3.4-6.5-6.9-11-8.9c-4.4-2-9.2-2.6-13.9-2.6C192.6,181.7,192.6,183.2,193.6,183.2z"/>
			</g>
		</g>
	</g>
	<g>
		<path class="st5" d="M70.7,249.8c-3.3,6.8-8.6,17-5,23c3.2,5.4,10.6,1.3,13.7-2.1c2.6-2.8,4.4-6.2,6.2-9.5
			c6.6-12.2,17.6-17.4,29.6-23.2c7-3.4,14.8-9,14.8-17.7c0-17.5-24.1-19.4-35.8-13.2c-6.8,3.6-9.6,11.4-12.7,18
			c-3.3,7.1-6.1,14.3-9.3,21.5C71.8,247.7,71.3,248.7,70.7,249.8z"/>
	</g>
	<path class="st6" d="M79.4,270.7c1.6-1.7,2.9-3.7,4.1-5.8c-0.3-0.4-0.7-0.8-1.3-1.1c-1.4-0.7-3.1-0.1-4.6,0.6
		c0.9-0.4-0.7-2.8-1-3.1c-0.8-0.7-2.2-1.5-3.4-1.5c-0.6,0-3,0.8-2.6,1.8c-0.3-0.7-0.1-1.5-0.4-2.2c-0.3-0.6-0.8-1-1.4-1.2
		c-0.7-0.3-1.3-0.4-2-0.3c-2.1,5.3-3.5,10.9-1.2,14.7C68.9,278.2,76.3,274.1,79.4,270.7z"/>
	<g>
		<path class="st7" d="M115.4,204.9c1.7,2,2.9,4.6,3.4,7.9c1.1,8.6-5.8,15.2-12.3,19.5c-11.1,7.4-21.3,13.9-26.3,26.9
			c-1.4,3.5-2.6,7.2-4.9,10.2c-1.6,2.3-4.8,5-7.9,5.7c3.6,1.4,8.7-1.7,11.1-4.3c2.6-2.8,4.4-6.2,6.2-9.5
			c6.6-12.2,17.6-17.4,29.6-23.2c7-3.4,14.8-9,14.8-17.7C129.1,211.6,123,206.7,115.4,204.9z"/>
	</g>
	<g>
		<g>
			<path class="st2" d="M70.1,249.5c-2.9,6-7.2,13.3-6.2,20.2c0.8,5.4,5.2,7.6,10.1,5.6c7.3-2.9,9.8-10.3,13.8-16.4
				c5.4-8.2,13.7-13.3,22.2-17.6c6.6-3.3,14.1-6.4,18.2-12.9c3-4.7,3.2-11,0.4-15.9c-5.3-9.5-19.1-10.6-28.6-8.3
				c-7.4,1.8-12.3,6.3-15.8,13C78.9,227.7,75.2,238.9,70.1,249.5c-0.4,0.9,0.9,1.6,1.3,0.8c3.6-7.5,6.5-15.3,9.9-22.8
				c2.7-5.9,5-12.7,9.9-17.2c7.4-6.7,21.4-7.2,30-2.7c4.9,2.6,8,7.3,8,12.9c0,7.9-6.9,13.1-13.2,16.4c-10.7,5.6-21.9,10.4-29,20.7
				c-2.1,3.1-3.6,6.6-5.7,9.6c-2.1,3-6.7,8.1-10.9,7.5c-11-1.7-1.5-19.3,1-24.4C71.8,249.4,70.5,248.6,70.1,249.5z"/>
		</g>
	</g>
	<g>
		<path class="st5" d="M101.7,153.6c-0.8,0.2-1.6,0.4-2.4,0.6c-7.3,1.6-20.6,3.6-26.9-1.6c-3.6-2.9-4.7-8.5-3.2-12.8
			c1.4-4.2,5.3-6.3,9.2-7.9c9.5-3.8,21.1-6,30.5-0.5c4,2.4,6.1,7.1,5,11.7C112.6,148.9,107.1,152,101.7,153.6z"/>
	</g>
	<g>
		<path class="st7" d="M102.1,153.6c-0.8,0.2-1.6,0.4-2.4,0.6c-7.3,1.6-20.6,3.6-26.9-1.6c-3.6-2.9-4.7-8.5-3.2-12.8
			c1.4-4.2,5.3-6.3,9.2-7.9c9.5-3.8,21.1-6,30.5-0.5c4,2.4,6.1,7.1,5,11.7C112.9,148.9,107.4,152,102.1,153.6z"/>
	</g>
	<g>
		<path class="st5" d="M103.3,45.6c-5.1-0.3-9.9,1.8-15.6,4.6c-12.4,6.1-7.8,18.2-1.9,27.5c4.3,6.9,9.8,13,13.7,20.1
			c3.9,7.2,6.3,15.6,7.6,23.6c2.7,16.9,0.5,35.2-7.9,50.2C91,186.1,81.7,202.2,88.3,219c5.5,14,19.1,21.6,33.7,22.7
			c33.7,2.4,54.7-25.4,60.7-55.7c10.3-52-25.5-112.8-70.6-137.6C108.9,46.6,106,45.7,103.3,45.6z"/>
	</g>
	<g>
		<path class="st7" d="M136.2,232.2c-14,4-32.2-5.1-37.7-19.2c-6.6-16.9,2.6-33,10.7-47.4c8.5-15.1,10.6-33.3,7.9-50.2
			c-1.3-8.1-3.6-16.4-7.6-23.6c-3.9-7.1-9.3-13.3-13.7-20.1c-4.9-7.7-8.9-17.4-2.9-24c-1.7,0.7-3.5,1.5-5.4,2.5
			c-12.4,6.1-7.8,18.2-1.9,27.5c4.3,6.9,9.8,13,13.7,20.1c3.9,7.2,6.3,15.6,7.6,23.6c2.7,16.9,0.5,35.2-7.9,50.2
			C91,186.1,81.7,202.2,88.3,219c5.5,14,19.1,21.6,33.7,22.7c13.6,1,25.1-3,34.4-10C148.4,228.1,144.6,229.9,136.2,232.2z"/>
	</g>
	<g>
		<g>
			<path class="st2" d="M103.3,44.8c-7.1-0.1-17,3.3-21.5,9c-3.8,4.7-2.9,10.9-0.9,16.1c3.3,8.3,9.3,15,14.2,22.3
				c6.6,9.7,10.2,20.8,11.6,32.4c1.2,10.2,0.7,20.6-1.9,30.5c-2.8,10.6-8.7,19.4-13.4,29.1c-7.4,15.5-9.2,33.7,4,46.8
				c10.8,10.7,27.6,13.4,42.1,10.2c14.3-3.2,26.1-12.9,34-25c18-27.6,16.6-63,5.1-92.8c-6.8-17.6-16.9-33.8-29.5-47.8
				c-6.1-6.8-12.9-13.1-20.2-18.6C120.1,51.9,112.1,45.7,103.3,44.8c-1-0.1-1,1.4,0,1.5c7.9,0.8,15.5,6.6,21.7,11.2
				c6.3,4.6,12.1,9.8,17.5,15.5c10.9,11.3,20,24.3,27,38.3c13.7,27.5,19.3,60.2,8.1,89.5c-5.2,13.6-14.1,26.3-26.9,33.7
				c-13.4,7.8-31.1,9.1-45.1,2.1c-7.5-3.7-13.6-9.9-16.6-17.8c-4.1-10.4-1.8-21.4,2.6-31.3c3.3-7.4,7.9-14.2,11.1-21.6
				c3.3-7.8,5.2-16.1,5.9-24.5c1.4-19.2-3.4-37.9-14.6-53.4c-5-7-11.4-14.4-13-23.1c-2.3-12.1,12.1-18.7,22.4-18.5
				C104.3,46.3,104.3,44.8,103.3,44.8z"/>
		</g>
	</g>
	<g>
		<path class="st5" d="M133.1,102.1c21.4-23.8-12.7-49.2-34.4-52.2c-3.7-0.5-7.6-0.6-11.2,0.7C79,53.7,79,64.5,79.1,72.3
			c0.1,9.1,1.1,18.1,2.1,27.2c1.5,13.8,2,26.8,7.3,39.9c2,5,4.7,10.1,9.4,12.8c8.8,5.2,20.7-0.7,25.7-9.6c5-8.9,4.9-19.7,4.8-29.9
			c0-1.8,0-3.7,0.7-5.4C129.9,105.2,131.7,103.8,133.1,102.1z"/>
	</g>
	<g>
		<g>
			<g>
				<path class="st7" d="M87.2,59.5c5.8-2.8,10.5-4.9,15.6-4.6c2.7,0.2,5.6,1,8.8,2.8c38.6,21.2,70.2,68.6,72.3,114.4
					c2.2-48.5-31.1-101-72.3-123.6c-3.2-1.8-6-2.6-8.8-2.8c-5.1-0.3-9.9,1.8-15.6,4.6c-7.8,3.9-8.8,10.1-7.1,16.4
					C81.1,63.8,83.3,61.4,87.2,59.5z"/>
			</g>
		</g>
	</g>
	<g>
		<g>
			<g>
				<path class="st7" d="M129.7,105c-1.8,1.2-3.8,2.3-5,4.1c-1.1,1.5-1.5,3.3-1.9,5.1c-2.2,10-4.5,20.5-11.4,28
					c-4.1,4.5-10.3,7.4-16.2,7.5c0.9,0.9,1.9,1.6,2.9,2.3c8.8,5.2,20.7-0.7,25.7-9.6c5-8.9,4.9-19.7,4.8-29.9c0-1.8,0-3.7,0.7-5.4
					c0.8-2,2.5-3.5,4-5.1c0.1-0.1,0.2-0.3,0.4-0.4C132.6,102.9,131.3,104,129.7,105z"/>
			</g>
			<g>
				<path class="st7" d="M80.2,87.1c0.9-7.8,1.9-15.6,3.6-23.2c0.9-4.3,2.1-9.5,4.5-13.4c-0.2,0.1-0.3,0.1-0.5,0.2
					c-8.6,3.1-8.6,13.9-8.5,21.7C79.4,77.2,79.8,82.1,80.2,87.1z"/>
			</g>
		</g>
	</g>
	<g>
		<g>
			<path class="st2" d="M87.2,49.9c-10.3,4.4-9.1,17.9-8.7,27.2c0.4,9,1.6,17.9,2.5,26.8c0.8,7.6,1.4,15.3,3,22.8
				c2.2,10.2,6.5,25.9,18.8,27.9c11.2,1.8,20.7-7.5,24-17.3c2.7-8,2.3-16.4,2.5-24.7c0.1-3.6,0.9-6,3.3-8.8c1.2-1.4,2.5-2.8,3.6-4.3
				c2.2-3.2,3.7-6.7,4.3-10.5c0.2-0.9-1.3-1.3-1.4-0.4c-0.8,5-3.1,9.1-6.4,12.9c-1.8,2.1-3.9,3.9-4.6,6.8c-0.8,3-0.2,6.4-0.3,9.5
				c0,4.5-0.2,9-1,13.4c-1.5,8.2-5.4,15.9-13.1,19.9c-8.6,4.4-17.2,1.4-21.9-6.9c-8.6-15-8.6-33.9-10.4-50.6
				c-0.9-8.2-1.6-16.5-1.5-24.8c0.1-6.9,1-14.5,8.1-17.5C88.8,50.9,88.1,49.6,87.2,49.9L87.2,49.9z"/>
		</g>
	</g>
	<path class="st5" d="M224.2,76.3c2.1,0.1,4.1,0.4,6.1,1c1.3,0.4,2.5,0.9,3.5,1.8c3.3,3.1,0.6,9.2-2.3,11.5c-3.3,2.7-7.6,3.7-11.7,5
		c-10.4,3.4-19.1,10.2-27.8,16.7c-7.2,5.4-20,17-29.7,15.5c-7.7-1.2-9.6-10.3-8.4-16.6c2.3-11.6,11.9-18.2,22.1-22.6
		c8.5-3.7,17.3-7,26.3-9.2C209.1,77.8,216.9,75.9,224.2,76.3z"/>
	<path class="st6" d="M233.8,79.1c-1-0.9-2.2-1.4-3.5-1.8c-2-0.6-4-0.9-6.1-1c-3.1-0.2-6.4,0.1-9.6,0.6c0,0.2,0,0.4,0.1,0.7
		c0.3,1.7,2.1,2.7,3.7,3.5c-0.9-0.5-1.9,2.5-1.9,3c-0.1,1.2,0.3,2.9,1,3.9c0.4,0.5,2.8,2,3.3,1c-0.4,0.7-1.2,1.1-1.6,1.9
		c-0.3,0.6-0.3,1.4-0.1,2c0.3,1.2,1.1,2,2,2.5c3.7-1.1,7.4-2.2,10.4-4.6C234.4,88.2,237.1,82.2,233.8,79.1z"/>
	<path class="st7" d="M172.4,125.9c7.3-3.4,14.7-9.9,19.6-13.5c8.7-6.5,17.4-13.3,27.8-16.7c4.1-1.3,8.4-2.3,11.7-5
		c2.6-2.2,5-7.3,3-10.6c-0.7,1.7-1.8,3.3-3,4.3c-3.3,2.7-7.6,3.7-11.7,5c-10.4,3.4-19.1,10.2-27.8,16.7c-5.4,4-14,11.6-22,14.5"/>
	<path class="st5" d="M113.5,106.9c3-0.6,5.9-0.6,8.1,0.9c14.2,9.5-22.8,33.4-29.4,38.8c-2.6,2.2-5.3,4.3-8.4,5.7
		c-3.1,1.4-6.8,1.8-9.9,0.4c-4.7-2.1-6.6-7.8-5.9-12.6c1.1-7.6,8.3-12.4,14-16.6C91.2,116.8,102.3,109.3,113.5,106.9z"/>
	<path class="st6" d="M121.6,107.8c-2.2-1.5-5.1-1.5-8.1-0.9c-4.1,0.9-8.2,2.4-12.1,4.4c-0.1,0.7,0.1,1.5,0.6,2.4
		c0.9,1.5,2.9,1.8,4.7,2c-1.1-0.1-0.9,3-0.8,3.5c0.4,1.2,1.3,2.7,2.3,3.3c0.5,0.3,3.3,0.9,3.5-0.3c-0.1,0.8-0.7,1.5-0.8,2.3
		c-0.1,0.7,0.2,1.4,0.6,1.9c1,1.4,2.4,1.9,4,1.6C123.4,120.4,128.5,112.4,121.6,107.8z"/>
	<path class="st7" d="M121.7,107.8c-0.1-0.1-0.2-0.1-0.3-0.2c5.8,10.7-25.8,31.2-31.9,36.2c-2.6,2.2-5.3,4.3-8.4,5.7
		c-3.1,1.4-6.8,1.8-9.9,0.4c-0.4-0.2-0.8-0.4-1.2-0.7c1,1.5,2.3,2.7,4,3.5c3.1,1.4,6.8,0.9,9.9-0.4c3.1-1.4,5.8-3.5,8.4-5.7
		C98.9,141.2,135.9,117.3,121.7,107.8z"/>
	<g>
		<g>
			<path class="st5" d="M80.3,58.1c-2.9-1.1-5.8-2.2-8.9-2.6c-3.1-0.4-6.4,0.1-8.9,1.9c-0.5,0.3-0.9,0.8-1.1,1.3
				c-0.2,0.5-0.1,1-0.1,1.4c0.3,2.2,1.6,4.2,3.1,5.9c2,2.3,4.5,4.3,7.4,5.3c2.9,1,6.2,1,8.9-0.4"/>
			<g>
				<path class="st2" d="M80.5,57.4c-4.7-1.8-10-3.7-15.1-2.2c-2.9,0.9-5.4,2.5-4.7,5.7c1.8,8.5,12.7,14.1,20.5,10.8
					c0.9-0.4,0.1-1.7-0.8-1.3c-6.3,2.7-15.6-1.6-17.7-8.4c-3-9.5,13.7-4.6,17.4-3.2C81,59.2,81.3,57.7,80.5,57.4L80.5,57.4z"/>
			</g>
		</g>
		<path class="st8" d="M78.4,61.7c1,0.3,1.8,0.7,2.7,1.2c0.2,0.1,0.4,0.2,0.5,0.3c0.2,0.2,0.3,0.4,0.4,0.7c0.3,0.9,0.3,1.9,0,2.8
			C82,66.9,82,67,81.8,67.2c-0.1,0.2-0.3,0.3-0.6,0.3c-0.8,0.3-1.7,0.3-2.6,0.2s-1.7-0.5-2.5-0.8c-1-0.5-2-1-2.7-1.8
			c-0.7-0.7-1.5-2.2-1.2-3.3c0.2-0.5,1-0.4,1.4-0.4c0.7,0,1.4,0,2.2,0C76.8,61.3,77.6,61.5,78.4,61.7z"/>
		<g>
			<g>
				<path class="st2" d="M81.2,66.7c-1.4,0.1-3,0.1-4.4-0.3c-1.7-0.5-4.2-2.2-3.8-4.3c0.2-0.9-1.2-1.3-1.4-0.4c-0.5,2.3,1,4,2.8,5.2
					c2.1,1.3,4.4,1.4,6.8,1.3C82.2,68.1,82.2,66.6,81.2,66.7L81.2,66.7z"/>
			</g>
		</g>
		<g>
			<g>
				<path class="st2" d="M81.6,62.1c-4.8-2.6-10.6-2.4-15.2,0.7c-0.8,0.5,0,1.8,0.8,1.3c4.1-2.8,9.2-3.1,13.6-0.7
					C81.6,63.9,82.4,62.6,81.6,62.1L81.6,62.1z"/>
			</g>
		</g>
	</g>
	<g>
		<g>
			<g>
				<path class="st6" d="M95.8,63.1c3.6-6.2-0.3-18.9-8.8-18.5c-6.6,0.4-11.5,8-9.6,14.2C79.7,66.4,91.2,71,95.8,63.1
					C95.8,63.1,95.8,63.1,95.8,63.1z"/>
			</g>
			<g>
				<g>
					<path class="st9" d="M96.5,63.5c0.6-3.9-0.3-7.8-2.8-11c-2.9-3.8-7-5-11.6-5.5c-1.3-0.2-1.3,1.8,0,2c3.7,0.5,7.1,1.3,9.6,4.3
						c2.3,2.7,3.3,6.3,2.8,9.7C94.4,64.2,96.3,64.8,96.5,63.5L96.5,63.5z"/>
				</g>
			</g>
			<g>
				<g>
					<path class="st2" d="M96.5,63.4c2.7-5.1,1.5-12.3-2.4-16.5c-4.5-4.9-11.7-3.3-15.4,1.8c-4,5.5-2.8,12.7,2.6,16.7
						C86.1,68.8,93.2,69,96.5,63.4c0.5-0.8-0.8-1.6-1.3-0.8c-3,5.2-9.6,4.3-13.6,1c-4.7-3.9-5-10.5-0.9-15.1
						c9.2-10.1,19.1,5.2,14.4,14.1C94.7,63.5,96,64.2,96.5,63.4z"/>
				</g>
			</g>
			<g>
				<path class="st6" d="M85,58.1c2.1-5.2-0.9-16.3-6.3-16.2c-4.2,0.1-7.1,6.5-5.7,11.8C74.7,60.4,82.3,64.7,85,58.1
					C85,58.1,85,58.1,85,58.1z"/>
			</g>
			<g>
				<g>
					<path class="st9" d="M84.8,59.5c1.5-3.7,1.2-7.9-1.1-11.2c-2.2-3.2-6.4-4.2-10-4.1c-1.3,0-1.3,2,0,2c3.3-0.1,7,0.7,8.7,3.7
						c1.7,2.8,1.7,6.1,0.5,9.1C82.4,60.1,84.3,60.6,84.8,59.5L84.8,59.5z"/>
				</g>
			</g>
			<g>
				<g>
					<path class="st2" d="M85.7,58.3c1.6-4.6,0.5-10.9-2.5-14.6c-3-3.7-7.5-2.9-9.8,1.1c-2.9,5-1.6,11.9,2.9,15.6
						C79.7,63,84,62.5,85.7,58.3c0.4-0.9-1.1-1.3-1.4-0.4c-2.1,5.1-7.4,1.8-9.4-1.4c-2.2-3.7-2.3-9.6,1.1-12.6c3.8-3.4,7,1.5,8,4.8
						c1,3,1.3,6.3,0.2,9.3C83.9,58.8,85.4,59.2,85.7,58.3z"/>
				</g>
			</g>
			<g>
				<path class="st6" d="M76.9,50.4c0.4-5-4.3-14.7-8.5-13.8c-3.2,0.6-4,6.8-1.7,11.5C69.6,53.8,76.4,56.8,76.9,50.4
					C76.9,50.4,76.9,50.4,76.9,50.4z"/>
			</g>
			<g>
				<g>
					<path class="st9" d="M66.2,39.8c2.8,0.7,4.9,2.7,6.4,5.1c1.1,1.8,3.1,5.7,1.4,7.7c-0.8,1,0.6,2.4,1.4,1.4c2-2.5,1-6.2-0.3-8.8
						c-1.7-3.4-4.6-6.5-8.4-7.4C65.5,37.5,65,39.5,66.2,39.8L66.2,39.8z"/>
				</g>
			</g>
			<g>
				<g>
					<path class="st2" d="M77.7,50.3c0.2-4.5-2-10-5.4-13.1c-3.2-2.9-6.7-1.1-7.4,3c-0.9,5,1.5,10.9,5.9,13.5
						C74.2,55.7,77.3,54.3,77.7,50.3c0.1-1-1.4-1-1.5,0c-0.4,4.7-4.9,2.3-6.9,0.1c-2.5-2.8-4.1-7.5-2.6-11.1
						c1.9-4.7,5.7-0.1,7.1,2.3c1.5,2.6,2.6,5.7,2.4,8.7C76.1,51.3,77.6,51.3,77.7,50.3z"/>
				</g>
			</g>
			<g>
				<path class="st6" d="M68.4,43.5c0-4.1-4.9-11.3-8.4-10c-2.7,1-2.9,6.1-0.5,9.6C62.3,47.3,68.4,48.7,68.4,43.5
					C68.4,43.5,68.4,43.5,68.4,43.5z"/>
			</g>
			<g>
				<g>
					<path class="st9" d="M58.2,35.8c5.9,0.5,7.6,5.1,7.2,10.4c-0.1,1.3,1.9,1.3,2,0c0.5-6.6-2.2-11.8-9.2-12.4
						C56.9,33.7,56.9,35.7,58.2,35.8L58.2,35.8z"/>
				</g>
			</g>
			<g>
				<g>
					<path class="st2" d="M69.1,43.4c-0.2-3.7-2.6-8.1-5.7-10.1c-3.1-2-5.9,0-6.3,3.4c-0.4,4.2,2.1,8.6,6,10.2
						C66.1,48.3,69.1,47,69.1,43.4c0-1-1.5-1-1.5,0c0,3.5-3.3,2.8-5.4,1.4c-2.5-1.8-4.2-5.2-3.6-8.3c0.7-3.6,3.7-2.4,5.5-0.5
						c1.8,2,3.3,4.7,3.5,7.4C67.7,44.4,69.2,44.4,69.1,43.4z"/>
				</g>
			</g>
			<g>
				<path class="st6" d="M61.9,38.2c-0.8-3.5-5.8-9.6-8.3-8.6c-1.9,0.8-1.1,5.2,1.3,8.2C58,41.5,62.9,42.7,61.9,38.2
					C61.9,38.3,61.9,38.2,61.9,38.2z"/>
			</g>
			<g>
				<g>
					<path class="st9" d="M54.2,32.4c2.8,1.9,5.3,4.7,5,8.3c-0.1,1.3,1.9,1.3,2,0c0.4-4.4-2.6-7.7-6-10
						C54.1,29.9,53.1,31.6,54.2,32.4L54.2,32.4z"/>
				</g>
			</g>
			<g>
				<g>
					<path class="st2" d="M62.6,38c-0.8-3.2-3.3-6.6-6-8.4c-2.5-1.6-4.9-0.4-4.7,2.7c0.2,3.8,3.1,7.7,6.6,9.1
						C61.2,42.5,63.3,41,62.6,38c-0.2-0.9-1.7-0.5-1.4,0.4c0.7,3.4-3.1,1.4-4.4,0.3c-1.8-1.6-3.9-4.6-3.5-7.2
						c0.5-2.7,3.5,0.1,4.4,1.1c1.5,1.6,2.9,3.6,3.5,5.8C61.4,39.3,62.9,38.9,62.6,38z"/>
				</g>
			</g>
			<g>
				<path class="st6" d="M55.9,31.6c-1.2-2.8-6.5-6.8-8.4-5.3c-1.5,1.1,0,4.6,2.5,6.6C53.1,35.2,57.5,35.1,55.9,31.6
					C55.9,31.6,55.9,31.6,55.9,31.6z"/>
			</g>
			<g>
				<g>
					<path class="st9" d="M46.7,27.5c2.6,1.2,5.6,3.5,5.9,6.5c0.1,1.3,2.1,1.3,2,0c-0.4-3.8-3.5-6.8-6.9-8.2
						C46.5,25.2,45.5,26.9,46.7,27.5L46.7,27.5z"/>
				</g>
			</g>
			<g>
				<g>
					<path class="st2" d="M56.5,31.2c-1.2-2.5-4-5-6.8-5.8c-2.6-0.8-4.2,1.1-3.4,3.6c0.9,3.1,4,5.7,7.1,6.1
						C56.2,35.4,57.6,33.6,56.5,31.2c-0.4-0.9-1.7-0.1-1.3,0.8c1.2,2.6-2.6,1.6-3.7,1c-1.7-0.9-3.9-3-3.9-5.1c0-2.2,3-0.4,3.9,0.2
						c1.5,1,2.9,2.4,3.7,4C55.7,32.8,57,32,56.5,31.2z"/>
				</g>
			</g>
		</g>
	</g>
	<g>
		<path class="st5" d="M203.5,258.5c1.7,5.3,3.6,13.5-0.2,18.3c-6.1,7.6-15-0.4-19.4-5.3c-6.2-6.9-13.3-13.2-21.1-18.3
			c-8.6-5.6-22.7-10.7-26.5-21c-2.5-7-0.4-15.7,5.8-20.1c2.4-1.7,5.5-2.3,8.4-2.4c23.8-0.9,43.2,25.3,51.6,44.9
			C202.5,255.7,203,257,203.5,258.5z"/>
	</g>
	<path class="st6" d="M198.1,256.1c-1.5,0.8-2,2.8-2.2,4.6c0.2-1-2.9-1-3.4-0.9c-1.2,0.3-2.7,1.1-3.4,2.2c-0.3,0.5-1.1,3.3,0.1,3.5
		c-0.8-0.1-1.5-0.8-2.3-0.9c-0.7-0.1-1.4,0.1-2,0.5c-2.2,1.4-2.2,3.9-1.2,6.4c0,0.1,0.1,0.1,0.1,0.2c4.4,4.9,13.3,12.9,19.4,5.3
		c3.9-4.8,1.9-13,0.2-18.3c-0.1-0.4-0.3-0.8-0.4-1.2C202,255.7,200.3,254.9,198.1,256.1z"/>
	<g>
		<path class="st7" d="M136.3,232.2c3.7,10.3,17.9,15.4,26.5,21c7.8,5,14.9,11.4,21.1,18.3c4.4,4.9,13.3,12.9,19.4,5.3
			c0.7-0.9,1.2-1.9,1.6-2.9c-6,4.3-13.6-2.6-17.6-7c-6.2-6.9-13.3-13.2-21.1-18.3c-7.7-5-19.8-9.6-25-17.9"/>
	</g>
	<g>
		<g>
			<path class="st1" d="M83.8,80.7c-1.3,0.9-2.9,1.2-4.4,1c-1.5-0.2-2.8-0.6-4.3-0.4c-1.4,0.2-2.7,1-3.8,1.9
				c-1.4,1.1-2.6,2.5-4.2,3.4c-1.4,0.8-3.1,1.1-4.8,0.9c-1.2-0.2-2.3-0.6-3.4-1.1c-0.9-0.4-1.8-0.8-2.7-1.2c3.8-0.8,7.5-2.2,10.2-5
				c1.8-1.9,3.1-4.3,5.3-5.7c2.2-1.5,5-1.8,7.7-1.9c1.1,0,2.2,0,3.3,0c1.1,0,2.4,0.1,3.2,1C87.6,75.6,85.5,79.5,83.8,80.7z"/>
			<g>
				<path class="st2" d="M83.4,80.1c-3.8,1.9-7.6-0.5-11.3,1.7c-1.2,0.7-2.2,1.9-3.3,2.8c-4.2,3.2-7.7,2-12.1,0.1
					c-0.1,0.5-0.1,0.9-0.2,1.4c4.9-1.2,8.8-3,12.1-6.9c2.8-3.4,5.5-5.3,10-5.6c1-0.1,3.2-0.5,4.1-0.1c3.4,1.7,3.1,4.5,0.6,6.8
					c-0.7,0.6,0.3,1.7,1.1,1.1c4.3-3.8,3.8-9.3-2.4-9.4c-3.6-0.1-7.6,0.1-10.7,2.2c-2.2,1.5-3.4,3.9-5.3,5.7
					c-2.7,2.7-6.3,3.9-9.9,4.8c-0.6,0.1-0.8,1.1-0.2,1.4c4.4,1.9,8.4,3.6,12.8,0.7c0.8-0.5,1.5-1.3,2.2-1.9c2.6-2.2,5.1-1.9,8.4-2.2
					c2-0.2,3.1-0.2,5-1.1C85,80.9,84.3,79.6,83.4,80.1z"/>
			</g>
		</g>
		<g>
			<path class="st3" d="M83.5,76.6c-3.1,1.4-5.7-1.5-8.9-0.9c-1.3,0.2-2.3,1.1-3.3,2c-1.6,1.5-2.9,3.2-4.4,4.7
				c-1.5,1.5-3.2,2.9-5.3,3.6c-2,0.7-4.4,0.5-6.1-0.9c1.8,0,3.6-0.8,5-2c1.9-1.7,2.9-4.2,4.2-6.4c1-1.7,2.3-3.3,3.6-4.8
				c0.5-0.6,1-1.1,1.6-1.6c0.7-0.6,1.4-1,2.2-1.4c1.7-0.8,3.5-1.3,5.3-1.4c2.8-0.2,5.7,0.3,7.8,2.2c1,0.9,1.7,2.2,1.1,3.5
				C85.7,74.6,85,75.9,83.5,76.6z"/>
			<g>
				<path class="st2" d="M83.3,75.9c-4.2,1.2-7.3-2.4-11.4,0.3c-4.8,3.2-8.7,12.8-16,8.3c-0.1,0.5-0.3,0.9-0.4,1.4
					c5.6-0.6,7.1-4.3,9.9-8.7c2-3.2,4.6-6.6,8.3-8c1.7-0.6,3.5-1,5.2-0.9c4.1,0.1,9.6,4.3,4.2,7.7c-0.8,0.5-0.1,1.8,0.8,1.3
					c7-4.4,1.4-10.4-4.9-10.5c-3.7-0.1-7.6,1.3-10.3,3.9c-4.4,4.2-6.4,12.9-13.1,13.7c-0.7,0.1-1.1,1-0.4,1.4
					C59,88.1,63,86.8,66.3,84c3.4-2.9,5.6-7.5,10.7-7.4c2.7,0,3.9,1.5,6.7,0.7C84.6,77.1,84.2,75.6,83.3,75.9z"/>
			</g>
		</g>
		<g>
			<path class="st4" d="M79.6,64.8c-1.6-0.1-3.2,0.2-4.7,0.7c-4.5,1.7-8.1,5.5-10.5,9.6c-1.3,2.1-2.2,4.5-3.7,6.4
				c-1.5,2-3.7,3.6-6.2,3.5c1.5,0.9,3.5,0.9,5.1,0.1c1.1-0.6,1.9-1.5,2.7-2.4c1.8-2.1,3.4-4.3,5-6.5c1.5-2.1,3.4-4.3,5.8-5.5
				c2.4-1.1,5.7-0.7,8,0.2c0.9,0.3,1.8,0.8,2.7,0.9s2-0.1,2.5-1c0.4-0.7,0.4-1.4,0-2.2C85.3,66.2,82.2,64.9,79.6,64.8z"/>
			<g>
				<path class="st2" d="M79.6,64c-4.7,0.1-8.5,2.1-11.8,5.3c-4.3,4.3-6.6,14.3-13.3,14.9c-0.9,0.1-1,1.1-0.2,1.5
					c4.6,1.9,7.3-0.9,10.1-4.3c2.1-2.6,4-6.3,6.6-8.3c2.7-2,5.4-2.7,8.7-1.8c1.3,0.3,2.6,1.2,4,1.3c2,0.1,3.8-0.7,3.8-2.9
					C87.4,66,82.4,64.3,79.6,64c-1-0.1-0.9,1.4,0,1.5c1.5,0.1,2.9,0.5,4.1,1.3c0.5,3.6-0.3,4.8-2.4,3.4c-0.8,0-2-0.6-2.8-0.7
					c-2.3-0.3-4.5-0.1-6.5,1c-5.5,3-9.9,16.8-17.3,13.7c-0.1,0.5-0.1,1-0.2,1.5c4.4-0.4,6.7-3.4,8.8-7.1c3.5-6.5,8.1-13.1,16.3-13.2
					C80.5,65.5,80.6,64,79.6,64z"/>
			</g>
		</g>
	</g>
	<g>
		<g>
			<path class="st2" d="M161,99.4c9.4-9.4,23.7-14.1,36.2-17.7c6.6-1.9,13.4-3.7,20.2-4.4c3.2-0.3,6.5-0.4,9.7,0.1
				c1.4,0.2,4.3,0.7,5.3,1.6c1.8,1.7,2.2,5.5,1.2,7.6c-3.1,6.5-11.2,7.1-17.2,9.5c-5.1,2.1-9.8,4.9-14.4,8
				c-9.7,6.7-18.5,15.1-29,20.6c-0.9,0.4-0.1,1.7,0.8,1.3c13.8-7.2,24.5-19.3,38.5-26.4c6.1-3.1,14.5-3.8,19.8-8.5
				c2.7-2.4,4.9-6.8,3.6-10.4c-1.6-4.4-7.6-5-11.5-5.2c-7.4-0.5-14.9,1.4-22.1,3.2c-14.4,3.6-31.5,8.8-42.2,19.5
				C159.2,99,160.3,100,161,99.4L161,99.4z"/>
		</g>
	</g>
	<g>
		<g>
			<path class="st2" d="M90.8,148.7c7.9-6.4,16.4-12,23.8-19c4.4-4.2,14.3-13.3,9.7-20.3c-3.5-5.4-10.8-3.6-15.9-1.9
				c-9.3,3.1-17.7,8.7-25.6,14.3c-5.5,4-12.1,8.1-14.7,14.6c-2.4,6-1.5,12.6,3.7,16.6c8.5,6.6,20.2,3,29.8,1.3
				c0.9-0.2,0.5-1.6-0.4-1.4c-8.5,1.5-18.5,4.7-26.5,0.3c-5.3-3-7.4-8.5-5.8-14.4c2-7.5,9.5-12,15.4-16.2
				c6.3-4.5,12.8-8.8,19.9-11.9c5-2.2,18.9-7.3,19.7,1.9c0.7,7.4-9.3,15.2-14.2,19.4c-6.4,5.5-13.4,10.2-20,15.5
				C89,148.3,90.1,149.3,90.8,148.7L90.8,148.7z"/>
		</g>
	</g>
	<g>
		<g>
			<g>
				<g>
					<path class="st2" d="M102.4,91.6c0.6,3.5,3.6,5.5,7.1,4.9c3.9-0.6,6.7-3.7,7.3-7.4c0.2-0.9-1.3-1.4-1.4-0.4
						c-0.5,2.8-2.1,5.1-4.8,6.1c-3,1-6.1-0.2-6.7-3.6C103.7,90.2,102.2,90.6,102.4,91.6L102.4,91.6z"/>
				</g>
			</g>
			<g>
				<g>
					<path class="st2" d="M105.5,95.2c-0.5,1.1-0.9,2.2-1.4,3.4c-0.4,0.9,1.1,1.3,1.4,0.4c0.5-1.1,0.9-2.2,1.4-3.4
						C107.3,94.7,105.8,94.3,105.5,95.2L105.5,95.2z"/>
				</g>
			</g>
			<g>
				<g>
					<path class="st2" d="M109.3,96.1c0.1,0.9,0.2,1.7,0.4,2.6c0.1,0.4,0.6,0.6,0.9,0.5c0.4-0.1,0.6-0.5,0.5-0.9
						c-0.1-0.9-0.2-1.7-0.4-2.6c-0.1-0.4-0.6-0.6-0.9-0.5C109.4,95.3,109.2,95.7,109.3,96.1L109.3,96.1z"/>
				</g>
			</g>
			<g>
				<g>
					<path class="st2" d="M112.9,94.1c0.5,0.9,1,1.9,1.5,2.8c0.5,0.8,1.8,0.1,1.3-0.8c-0.5-0.9-1-1.9-1.5-2.8
						C113.7,92.5,112.4,93.3,112.9,94.1L112.9,94.1z"/>
				</g>
			</g>
		</g>
	</g>
	<g>
		<g>
			<g>
				<g>
					<path class="st2" d="M81.7,96.5c0.5,2.9,3,4.5,5.9,4.1c3.1-0.5,5.4-3,5.9-6.1c0.2-0.9-1.3-1.4-1.4-0.4c-0.4,2.2-1.6,4-3.8,4.7
						c-2.4,0.8-4.7-0.1-5.2-2.7C83,95.1,81.5,95.5,81.7,96.5L81.7,96.5z"/>
				</g>
			</g>
			<g>
				<g>
					<path class="st2" d="M84.2,99.3c-0.4,0.9-0.7,1.8-1.1,2.7c-0.2,0.4,0.2,0.8,0.5,0.9c0.4,0.1,0.8-0.2,0.9-0.5
						c0.4-0.9,0.7-1.8,1.1-2.7c0.2-0.4-0.2-0.8-0.5-0.9C84.7,98.6,84.3,98.9,84.2,99.3L84.2,99.3z"/>
				</g>
			</g>
			<g>
				<g>
					<path class="st2" d="M87.2,100.1c0.1,0.7,0.2,1.4,0.3,2.1c0.1,0.4,0.6,0.6,0.9,0.5c0.4-0.1,0.6-0.5,0.5-0.9
						c-0.1-0.7-0.2-1.4-0.3-2.1c-0.1-0.4-0.6-0.6-0.9-0.5C87.3,99.3,87.2,99.7,87.2,100.1L87.2,100.1z"/>
				</g>
			</g>
			<g>
				<g>
					<path class="st2" d="M90.2,98.5c0.4,0.8,0.8,1.5,1.2,2.3c0.5,0.8,1.8,0.1,1.3-0.8c-0.4-0.8-0.8-1.5-1.2-2.3
						C91,96.9,89.7,97.7,90.2,98.5L90.2,98.5z"/>
				</g>
			</g>
		</g>
	</g>
	<g>
		<g>
			<path class="st2" d="M170.6,216.3c11.3,7.2,20,18.1,26.4,29.8c2.9,5.2,5.4,10.6,6.8,16.3c0.8,3.4,1.5,7.2,0.4,10.7
				c-1.7,5.7-7.3,7.2-12.2,4.5c-5.5-3-9.4-8.6-13.8-12.9c-4.7-4.5-9.7-8.6-15.2-12.1c-9.1-5.8-21.8-9.8-26.1-20.6
				c-0.4-0.9-1.8-0.5-1.4,0.4c5,12.3,19.7,16.4,29.7,23.4c7.4,5.2,13.3,11.6,19.7,17.9c3.5,3.5,8.8,8,14.1,6.7c12.9-3,5.5-22.6,2-30
				c-6.7-13.9-16.5-27.1-29.6-35.5C170.6,214.5,169.8,215.8,170.6,216.3L170.6,216.3z"/>
		</g>
	</g>
	<g>
		<g>
			<path class="st2" d="M112.7,143.6c0,0.2-0.4,1.4-0.7,1.3c-0.4-0.1-0.2-1.2-0.2-1.5c0.1-0.3,0.3-1.3,0.7-1.3
				C112.9,142.1,112.8,143.3,112.7,143.6c-0.2,0.9,1.3,1.3,1.4,0.4c0.2-1.2,0.2-3.1-1.3-3.3c-1.4-0.2-2.2,1.3-2.5,2.4
				c-0.2,1.1-0.2,3,1.2,3.3c1.4,0.4,2.3-1.3,2.6-2.4C114.4,143,113,142.6,112.7,143.6z"/>
		</g>
	</g>
	<g>
		<g>
			<path class="st2" d="M96.8,148.8c0.7,0.9,2.1,1.9,3.2,1.1c1.3-0.8,0.5-2.7-0.2-3.6c-0.7-0.9-2.1-1.9-3.2-1.2
				c-1.3,0.8-0.6,2.6,0.1,3.5c0.6,0.8,1.9,0,1.3-0.8c-0.2-0.3-0.4-0.6-0.5-1c0-0.1-0.1-0.3-0.1-0.4c0-0.1,0.1-0.1,0-0.1
				c0.4-0.2,1.1,0.6,1.3,0.9c0.2,0.3,0.4,0.6,0.5,0.9c0,0.1,0.1,0.3,0.1,0.4c0,0.1-0.1,0.2,0,0.1c-0.4,0.2-1.2-0.7-1.3-0.9
				C97.3,147,96.2,148,96.8,148.8z"/>
		</g>
	</g>
	<g>
		<g>
			<path class="st5" d="M105,47.1c0.2-3.1,0.4-6.2,1.4-9.2c1-2.9,2.8-5.7,5.5-7.2c0.5-0.3,1.1-0.5,1.6-0.5c0.5,0,0.9,0.3,1.3,0.5
				c1.9,1.2,3.1,3.3,4,5.3c1.2,2.8,2,5.9,1.7,9c-0.3,3.1-1.7,6.1-4.1,8"/>
			<g>
				<path class="st2" d="M105.7,47.1c0.3-4,3.3-21.7,10.4-14c4.8,5.2,5.2,14.6-0.2,19.4c-0.7,0.6,0.3,1.7,1.1,1.1
					c3.3-3,4.8-7.1,4.3-11.5c-0.4-4-2.3-9.7-6-11.8c-2.8-1.6-5.2,0.5-7,2.6c-3.3,4-3.7,9.4-4,14.3C104.2,48.1,105.7,48.1,105.7,47.1
					L105.7,47.1z"/>
			</g>
		</g>
		<path class="st8" d="M109,47c-0.1,1-0.1,2-0.1,3c0,0.2,0,0.4,0.1,0.6c0.1,0.3,0.3,0.5,0.5,0.7c0.7,0.7,1.6,1.1,2.5,1.2
			c0.2,0,0.3,0,0.5,0c0.2-0.1,0.4-0.2,0.5-0.4c0.6-0.6,1-1.4,1.2-2.3c0.2-0.8,0.3-1.7,0.3-2.6c0-1.1-0.1-2.2-0.5-3.2
			c-0.4-0.9-1.3-2.3-2.5-2.4c-0.6,0-0.8,0.7-1,1.1c-0.3,0.6-0.6,1.3-0.9,2C109.4,45.4,109.1,46.2,109,47z"/>
		<g>
			<g>
				<path class="st2" d="M113.7,52.3c1.1-2.1,2-4.2,1.7-6.7c-0.3-2.2-1.1-4.2-3.4-4.8c-0.9-0.2-1.3,1.2-0.4,1.4
					c2.1,0.5,2.6,3.3,2.4,5.1c-0.2,1.5-0.8,2.8-1.5,4.1C111.9,52.4,113.2,53.2,113.7,52.3L113.7,52.3z"/>
			</g>
		</g>
		<g>
			<g>
				<path class="st2" d="M109.6,49.9c-0.3-5,2-9.6,6.3-12.1c0.8-0.5,0.1-1.8-0.8-1.3c-4.7,2.8-7.4,7.9-7.1,13.4
					C108.2,50.9,109.7,50.9,109.6,49.9L109.6,49.9z"/>
			</g>
		</g>
	</g>
</g>
<g>
	<g>
		<path class="st9" d="M207.4,55.3c-4.4-4.4-7.9-4.4-12.3,0c4.4-4.4,4.4-7.9,0-12.3c4.4,4.4,7.9,4.4,12.3,0
			C203,47.3,203,50.9,207.4,55.3z"/>
	</g>
	<g>
		<path class="st9" d="M257.9,165.9c-4.1-4.1-7.5-4.1-11.6,0c4.1-4.1,4.1-7.5,0-11.6c4.1,4.1,7.5,4.1,11.6,0
			C253.7,158.5,253.7,161.8,257.9,165.9z"/>
	</g>
	<g>
		<path class="st9" d="M206.9,144.3c-4.1-4.1-7.5-4.1-11.7,0c4.1-4.1,4.1-7.5,0-11.7c4.1,4.1,7.5,4.1,11.7,0
			C202.7,136.8,202.7,140.2,206.9,144.3z"/>
	</g>
	<g>
		<path class="st9" d="M274.9,75c-4.1-4.1-7.5-4.1-11.7,0c4.1-4.1,4.1-7.5,0-11.7c4.1,4.1,7.5,4.1,11.7,0
			C270.7,67.5,270.7,70.9,274.9,75z"/>
	</g>
	<g>
		<path class="st9" d="M261.6,247.7c-4.1-4.1-7.5-4.1-11.7,0c4.1-4.1,4.1-7.5,0-11.7c4.1,4.1,7.5,4.1,11.7,0
			C257.5,240.1,257.5,243.5,261.6,247.7z"/>
	</g>
	<g>
		<path class="st9" d="M151.2,23c-2.6-2.6-4.7-2.6-7.2,0c2.6-2.6,2.6-4.7,0-7.2c2.6,2.6,4.7,2.6,7.2,0
			C148.7,18.3,148.7,20.4,151.2,23z"/>
	</g>
	<g>
		<path class="st9" d="M76.2,184.5c-2.6-2.6-4.7-2.6-7.2,0c2.6-2.6,2.6-4.7,0-7.2c2.6,2.6,4.7,2.6,7.2,0
			C73.6,179.9,73.6,182,76.2,184.5z"/>
	</g>
	<path class="st10" d="M27.4,105.1l-4.9-0.8c-0.3,0-0.5,0-0.7,0.2l-3.4,3.5c-0.5,0.5-1.3,0.2-1.4-0.4l-0.7-4.9
		c0-0.3-0.2-0.5-0.4-0.6l-4.4-2.2c-0.6-0.3-0.6-1.1,0-1.4l4.4-2.2c0.2-0.1,0.4-0.3,0.4-0.6l0.7-4.9c0.1-0.7,0.9-0.9,1.4-0.4l3.5,3.5
		c0.2,0.2,0.4,0.3,0.7,0.2l4.8-0.9c0.7-0.1,1.2,0.6,0.8,1.2l-2.3,4.4c-0.1,0.2-0.1,0.5,0,0.7l2.3,4.3
		C28.5,104.6,28,105.2,27.4,105.1z"/>
	<path class="st10" d="M249.1,127.4l-3.2-3.7c-0.2-0.2-0.4-0.3-0.7-0.3l-4.9,0.5c-0.7,0.1-1.1-0.6-0.8-1.2l2.6-4.2
		c0.1-0.2,0.2-0.5,0-0.7l-2-4.5c-0.3-0.6,0.3-1.3,0.9-1.1l4.8,1.1c0.3,0.1,0.5,0,0.7-0.2l3.6-3.3c0.5-0.4,1.3-0.1,1.3,0.5l0.4,4.9
		c0,0.3,0.2,0.5,0.4,0.6l4.3,2.4c0.6,0.3,0.5,1.2-0.1,1.4l-4.5,1.9c-0.2,0.1-0.4,0.3-0.5,0.6l-1,4.8
		C250.3,127.7,249.5,127.9,249.1,127.4z"/>
	<path class="st10" d="M48.1,227l-4.9,0.6c-0.3,0-0.5,0.2-0.6,0.4l-2.3,4.4c-0.3,0.6-1.1,0.6-1.4,0l-2.1-4.5
		c-0.1-0.2-0.3-0.4-0.6-0.4l-4.9-0.8c-0.7-0.1-0.9-0.9-0.4-1.4l3.6-3.4c0.2-0.2,0.3-0.4,0.2-0.7l-0.8-4.9c-0.1-0.7,0.6-1.1,1.2-0.8
		l4.3,2.4c0.2,0.1,0.5,0.1,0.7,0l4.4-2.2c0.6-0.3,1.3,0.2,1.1,0.9l-0.9,4.8c0,0.3,0,0.5,0.2,0.7l3.5,3.5
		C49,226.1,48.8,226.9,48.1,227z"/>
	<g>
		<g>
			<g>
				<path class="st9" d="M241.5,34.2c0,1.7,0,3.5,0,5.2c0,1.3,2,1.3,2,0c0-1.7,0-3.5,0-5.2C243.5,32.9,241.5,32.9,241.5,34.2
					L241.5,34.2z"/>
			</g>
		</g>
		<g>
			<g>
				<path class="st9" d="M233,40.2c1.5,0.9,3,1.7,4.5,2.6c1.1,0.6,2.1-1.1,1-1.7c-1.5-0.9-3-1.7-4.5-2.6
					C232.9,37.8,231.9,39.5,233,40.2L233,40.2z"/>
			</g>
		</g>
		<g>
			<g>
				<path class="st9" d="M234,50.5c1.5-0.9,3-1.7,4.5-2.6c1.1-0.6,0.1-2.4-1-1.7c-1.5,0.9-3,1.7-4.5,2.6
					C231.9,49.4,232.9,51.1,234,50.5L234,50.5z"/>
			</g>
		</g>
		<g>
			<g>
				<path class="st9" d="M243.4,54.8c0-1.7,0-3.5,0-5.2c0-1.3-2-1.3-2,0c0,1.7,0,3.5,0,5.2C241.4,56.1,243.4,56.1,243.4,54.8
					L243.4,54.8z"/>
			</g>
		</g>
		<g>
			<g>
				<path class="st9" d="M251.8,48.9c-1.5-0.9-3-1.7-4.5-2.6c-1.1-0.6-2.1,1.1-1,1.7c1.5,0.9,3,1.7,4.5,2.6
					C251.9,51.2,252.9,49.5,251.8,48.9L251.8,48.9z"/>
			</g>
		</g>
		<g>
			<g>
				<path class="st9" d="M250.9,38.6c-1.5,0.9-3,1.7-4.5,2.6c-1.1,0.6-0.1,2.4,1,1.7c1.5-0.9,3-1.7,4.5-2.6
					C253,39.7,252,37.9,250.9,38.6L250.9,38.6z"/>
			</g>
		</g>
	</g>
	<g>
		<g>
			<g>
				<path class="st9" d="M284.6,196.9c-1.2,1.2-2.4,2.4-3.7,3.7c-0.9,0.9,0.5,2.3,1.4,1.4c1.2-1.2,2.4-2.4,3.7-3.7
					C286.9,197.4,285.5,196,284.6,196.9L284.6,196.9z"/>
			</g>
		</g>
		<g>
			<g>
				<path class="st9" d="M274.4,195.2c0.4,1.7,0.9,3.3,1.3,5c0.3,1.2,2.3,0.7,1.9-0.5c-0.4-1.7-0.9-3.3-1.3-5
					C276,193.4,274.1,193.9,274.4,195.2L274.4,195.2z"/>
			</g>
		</g>
		<g>
			<g>
				<path class="st9" d="M267.8,203.1c1.7,0.4,3.3,0.9,5,1.3c1.2,0.3,1.8-1.6,0.5-1.9c-1.7-0.4-3.3-0.9-5-1.3
					C267.1,200.8,266.5,202.8,267.8,203.1L267.8,203.1z"/>
			</g>
		</g>
		<g>
			<g>
				<path class="st9" d="M271.3,212.8c1.2-1.2,2.4-2.4,3.7-3.7c0.9-0.9-0.5-2.3-1.4-1.4c-1.2,1.2-2.4,2.4-3.7,3.7
					C269,212.3,270.4,213.7,271.3,212.8L271.3,212.8z"/>
			</g>
		</g>
		<g>
			<g>
				<path class="st9" d="M281.5,214.6c-0.4-1.7-0.9-3.3-1.3-5c-0.3-1.2-2.3-0.7-1.9,0.5c0.4,1.7,0.9,3.3,1.3,5
					C279.9,216.3,281.9,215.8,281.5,214.6L281.5,214.6z"/>
			</g>
		</g>
		<g>
			<g>
				<path class="st9" d="M288.2,206.6c-1.7-0.4-3.3-0.9-5-1.3c-1.2-0.3-1.8,1.6-0.5,1.9c1.7,0.4,3.3,0.9,5,1.3
					C288.9,208.9,289.4,207,288.2,206.6L288.2,206.6z"/>
			</g>
		</g>
	</g>
</g>
</svg>
