<?xml version="1.0" encoding="utf-8"?>
<!-- Generator: Adobe Illustrator 21.1.0, SVG Export Plug-In . SVG Version: 6.00 Build 0)  -->
<svg version="1.1" id="Layer_1" xmlns="http://www.w3.org/2000/svg" xmlns:xlink="http://www.w3.org/1999/xlink" x="0px" y="0px"
	 viewBox="0 0 300 200" style="enable-background:new 0 0 300 200;" xml:space="preserve">
<style type="text/css">
	.st0{fill:#FB6AB9;}
	.st1{fill:#FC6DBB;}
	.st2{fill:#7750A3;}
	.st3{fill:#291654;}
	.st4{fill:#FFFFFF;}
</style>
<g>
	<path class="st0" d="M187.5,65.2l7,3.4c0.4,0.2,0.6,0.5,0.7,0.9l1.1,7.7c0.2,1,1.4,1.4,2.1,0.7l5.4-5.6c0.3-0.3,0.7-0.4,1.1-0.4
		l7.6,1.3c1,0.2,1.8-0.9,1.3-1.8l-3.6-6.8c-0.2-0.4-0.2-0.8,0-1.2l3.6-6.9c0.5-0.9-0.3-2-1.3-1.8l-7.6,1.3c-0.4,0.1-0.8-0.1-1.1-0.4
		l-5.4-5.5c-0.7-0.7-2-0.3-2.1,0.7l-1.1,7.7c-0.1,0.4-0.3,0.8-0.7,0.9l-6.9,3.5C186.6,63.5,186.6,64.8,187.5,65.2z"/>
	<path class="st1" d="M98.4,173.7c-24.1-5.6-45.6-19.2-53.5-54.3c-4.4-19.7-7.3-34.8-9.4-47.5c-2.5-4.4-5.3-8.5-8.2-12.3
		c-6.1-1.3-12.4-2.6-19.2-3.8c0,0,14.4,15,19.7,35.2c5.4,20.2,11.6,92.7,75.4,92.9c13.1,0,26,0.1,38-0.1
		c-14.4-1.2-26.6-4.4-36.9-8.9C102.3,174.6,100.2,174.2,98.4,173.7z"/>
	<path class="st2" d="M18.9,16c0,0,8.3,9.4,11.7,25.7c21.8,1.3,40.8,3.2,57.4,5.6C47,20.8,18.9,16,18.9,16z"/>
	<path class="st2" d="M98.4,173.7c1.9,0.4,3.9,0.8,6,1.2c-47.6-21-56.7-71-63.2-90.5c-1.4-4.3-3.4-8.5-5.7-12.5
		c2.1,12.7,4.9,27.8,9.4,47.5C52.8,154.5,74.3,168.1,98.4,173.7z"/>
	<path class="st3" d="M164.5,93.1c-1.8-1.9-3.9-2.8-6.2-2.8c0,0,0,0-0.1,0c-2.4,0-4.3,1-5,1.7c-1.1,1.1-3.7,10,3.7,19.2
		c1.3,1.6,2.6,2.9,3.9,4.1c2.5-2.6,4.2-5.3,5-7.4C168.8,100.5,169,97.7,164.5,93.1z"/>
	<path class="st3" d="M128.9,104.6c-0.2-0.2-0.4-0.3-0.7-0.3c-0.2,0-0.4,0-0.7,0.2c-1.3,0.5-2.8,2.9-2.6,11.3l0,0.9
		c0,0,0,0.5,0.2,1.2c2.5-3,4.3-6,5-8.1C130.6,108.4,130,105.7,128.9,104.6z"/>
	<path class="st3" d="M206.4,104.4c-12.6-20.5-35.3-44.9-118.4-57c-16.6-2.4-35.6-4.3-57.4-5.6c-6.8-0.4-13.9-0.8-21.3-1
		c0,0,9.1,7.6,17.9,19c2.9,3.7,5.7,7.8,8.2,12.3c2.3,4,4.2,8.2,5.7,12.5c6.5,19.5,15.7,69.5,63.2,90.5c10.4,4.6,22.6,7.7,36.9,8.9
		c0.5,0,0.9,0.1,1.4,0.1c115.5,0,73.7,0,151.3,0C238.3,166.1,222.3,130.2,206.4,104.4z M183.5,143.1c-1.8,6.8-9,13.3-19.2,17.5
		c-4.9,1.7-10.9,2.5-17.7,2.5c-3.9,0-8.1-0.3-12.5-0.9c-10.6-1.4-23-6.2-22.7-15.1c0.1-2.8,1.5-5.1,3.9-6.6
		c4.2-2.5,11.1-1.9,15.2,0.2c1.5,0.7,2.1,2.5,1.3,4c-0.7,1.5-2.5,2.1-4,1.3c-2.8-1.4-7.4-1.6-9.5-0.4c-0.7,0.4-1,0.9-1,1.7
		c-0.1,3.7,7.7,7.7,17.5,9c10.9,1.4,20.6,1,27.2-1.3c8.2-3.4,14.3-8.6,15.6-13.5c0.6-2.3,0.2-4.4-1.4-6.5c-2.9-3.8-6.4-6.1-10.5-8.6
		c-1.5-1-3.1-2-4.7-3.1c-5.9,4.8-13.7,8.5-22.2,8.5c-7.1,0-11.8-2.1-14.8-4.8c-5.7,4.3-12.9,6.9-20.5,4.7
		c-12-3.4-10.6-14.7-9.6-22.1c0.4-2.7,0.8-5.7,0.3-7c-0.4-1.1-0.9-1.3-1.1-1.3c-1-0.3-2.8,0.3-3.7,0.9c-1.4,0.9-3.2,0.4-4.1-0.9
		c-0.9-1.4-0.5-3.2,0.9-4.1c0.5-0.3,4.6-2.9,8.7-1.5c1.5,0.5,3.6,1.7,4.8,4.8c1.1,2.7,0.6,6,0.1,10c-1.1,8.5-1.3,13.7,5.3,15.6
		c5.7,1.6,11-0.4,15.3-3.7c-1.1-2.2-1.5-4.3-1.5-5.6l0-0.8c-0.1-4.3-0.3-14.3,6.4-17c2.7-1.1,5.5-0.6,7.6,1.3
		c3.1,2.8,3.9,8.1,2.9,11.3c-1.1,3.4-3.7,7.7-7.2,11.4c2.1,1.6,5.3,2.9,10.4,2.9c6.6,0,12.7-2.8,17.4-6.4c-1.4-1.3-2.8-2.7-4.1-4.4
		c-8.9-11.1-6.9-23.6-3.3-27.2c2.1-2.1,5.9-3.5,9.4-3.5c2.7,0,6.7,0.8,10.4,4.6c7.3,7.4,5.6,13.8,2.7,21.2c-1.1,2.8-3.1,5.9-5.8,8.9
		c1.2,0.8,2.3,1.5,3.5,2.3c4.1,2.6,8.4,5.4,12,10.1C183.8,134.9,184.6,139,183.5,143.1z"/>
	<path class="st4" d="M169.1,121.3c-1.1-0.7-2.3-1.5-3.5-2.3c2.7-3,4.7-6.1,5.8-8.9c2.9-7.5,4.6-13.8-2.7-21.2
		c-3.7-3.8-7.7-4.6-10.4-4.6c-3.5,0-7.2,1.3-9.4,3.5c-3.6,3.6-5.6,16.1,3.3,27.2c1.3,1.7,2.7,3.1,4.1,4.4
		c-4.7,3.6-10.8,6.4-17.4,6.4c-5,0-8.3-1.3-10.4-2.9c3.5-3.7,6.1-8,7.2-11.4c1-3.2,0.2-8.5-2.9-11.3c-2.1-1.9-4.8-2.4-7.6-1.3
		c-6.7,2.6-6.5,12.7-6.4,17l0,0.8c0,1.3,0.4,3.4,1.5,5.6c-4.3,3.3-9.6,5.3-15.3,3.7c-6.6-1.9-6.4-7.2-5.3-15.6c0.5-3.9,1-7.3-0.1-10
		c-1.2-3.1-3.3-4.3-4.8-4.8c-4-1.3-8.2,1.2-8.7,1.5c-1.4,0.9-1.8,2.7-0.9,4.1c0.9,1.4,2.7,1.8,4.1,0.9c0.9-0.6,2.7-1.2,3.7-0.9
		c0.2,0.1,0.6,0.2,1.1,1.3c0.5,1.2,0.1,4.3-0.3,7c-1,7.4-2.4,18.7,9.6,22.1c7.6,2.2,14.8-0.4,20.5-4.7c3.1,2.7,7.8,4.8,14.8,4.8
		c8.5,0,16.3-3.7,22.2-8.5c1.6,1.1,3.2,2.1,4.7,3.1c4,2.6,7.5,4.8,10.5,8.6c1.6,2.1,2,4.2,1.4,6.5c-1.3,4.9-7.4,10.1-15.6,13.5
		c-6.7,2.3-16.3,2.8-27.2,1.3c-9.8-1.3-17.6-5.3-17.5-9c0-0.8,0.3-1.3,1-1.7c2-1.2,6.6-1,9.5,0.4c1.5,0.7,3.3,0.1,4-1.3
		c0.7-1.5,0.1-3.3-1.3-4c-4.1-2.1-10.9-2.7-15.2-0.2c-2.4,1.4-3.8,3.8-3.9,6.6c-0.3,8.9,12,13.7,22.7,15.1c4.3,0.6,8.5,0.9,12.5,0.9
		c6.8,0,12.8-0.8,17.7-2.5c10.2-4.2,17.4-10.7,19.2-17.5c1.1-4.1,0.3-8.2-2.4-11.7C177.5,126.7,173.2,124,169.1,121.3z M125,116.6
		l0-0.9c-0.2-8.4,1.3-10.8,2.6-11.3c0.3-0.1,0.5-0.2,0.7-0.2c0.3,0,0.5,0.1,0.7,0.3c1.2,1.1,1.7,3.8,1.3,5.1c-0.7,2.1-2.4,5.2-5,8.1
		C125,117.1,125,116.7,125,116.6z M160.8,115.3c-1.3-1.2-2.6-2.5-3.9-4.1c-7.4-9.2-4.8-18.1-3.7-19.2c0.7-0.7,2.6-1.7,5-1.7
		c0,0,0,0,0.1,0c2.3,0,4.4,1,6.2,2.8c4.5,4.6,4.3,7.4,1.4,14.9C165.1,110.1,163.3,112.7,160.8,115.3z"/>
</g>
</svg>
