<?xml version="1.0" encoding="utf-8"?>
<!-- Generator: Adobe Illustrator 21.1.0, SVG Export Plug-In . SVG Version: 6.00 Build 0)  -->
<svg version="1.1" id="Layer_1" xmlns="http://www.w3.org/2000/svg" xmlns:xlink="http://www.w3.org/1999/xlink" x="0px" y="0px"
	 viewBox="0 0 32 32" style="enable-background:new 0 0 32 32;" xml:space="preserve">
<style type="text/css">
	.st0{fill:#FFFFFF;}
</style>
<title>ic_hamburger</title>
<path class="st0" d="M27.2,11.5H6.2c-0.6,0-1,0.4-1,1v0.1c0,0.6,0.4,1,1,1h20.9c0.6,0,1-0.4,1-1v-0.1C28.2,11.9,27.7,11.5,27.2,11.5
	z"/>
<path class="st0" d="M22,16.8h-3H9.2h-3c-0.6,0-1,0.4-1,1V18c0,0.6,0.4,1,1,1h3H19h3c0.6,0,1-0.4,1-1v-0.2
	C23,17.2,22.6,16.8,22,16.8z"/>
</svg>
