<?xml version="1.0" encoding="utf-8"?>
<!-- Generator: Adobe Illustrator 21.1.0, SVG Export Plug-In . SVG Version: 6.00 Build 0)  -->
<svg version="1.1" id="Layer_1" xmlns="http://www.w3.org/2000/svg" xmlns:xlink="http://www.w3.org/1999/xlink" x="0px" y="0px"
	 viewBox="0 0 90 90" style="enable-background:new 0 0 90 90;" xml:space="preserve">
<style type="text/css">
	.st0{fill:none;}
	.st1{fill:#E0E0E0;}
</style>
<rect class="st0" width="90" height="90"/>
<path class="st1" d="M50.1,20.2v-4.9c0-0.6-0.4-1-1-1h-3.3V10c0-0.6-0.4-1-1-1c-0.6,0-1,0.4-1,1v4.3h-3.3c-0.6,0-1,0.4-1,1v4.9
	c-12.2,2.5-21.4,13.2-21.4,26.1C18.2,61,30.1,73,44.8,73c3.8,0,7.5-0.8,10.9-2.3l0.1,0.3c0.1,0.4,0.5,0.8,1,0.8c0.5,0,0.9-0.3,1-0.8
	l0.4-1.5c1.5-0.8,2.8-1.8,4.1-2.9c0.4-0.4,0.5-1,0.1-1.4c-0.4-0.4-1-0.5-1.4-0.1c-0.7,0.6-1.4,1.1-2.1,1.6l0.4-1.8l5.3-1.8
	c0.4-0.1,0.7-0.5,0.7-0.9s-0.3-0.8-0.7-0.9l-5.3-1.8l-1.5-6c-0.1-0.4-0.5-0.8-1-0.8c-0.5,0-0.9,0.3-1,0.8l-1.5,6L49,61.2
	c-0.4,0.1-0.7,0.5-0.7,0.9s0.3,0.8,0.7,0.9l5.3,1.8l0.9,3.8c-2.4,1.1-5,1.8-7.6,2.1c0.7-1.3,1.3-3.1,1.9-5.5
	c0.1-0.5-0.2-1.1-0.8-1.2c-0.5-0.1-1.1,0.2-1.2,0.8c-1.1,5-2.3,6.1-2.7,6.1c-0.4,0-1.7-1.2-2.8-6.7c-0.1-0.3-0.1-0.7-0.2-1
	c1,0.1,2,0.1,3,0.1c0.6,0,1-0.4,1-1s-0.4-1-1-1c-1.1,0-2.2,0-3.3-0.1c-0.4-2.6-0.7-5.5-0.8-8.6c1.4,0,2.8,0.1,4.2,0.1
	c1.4,0,2.8,0,4.2-0.1c-0.1,2.2-0.3,4.3-0.5,6.3c-0.1,0.5,0.3,1,0.9,1.1c0.5,0.1,1-0.3,1.1-0.9c0.2-2.1,0.4-4.3,0.5-6.6
	c3.5-0.2,6.7-0.5,9.5-1c-0.3,2-0.7,4-1.4,5.8c-0.2,0.5,0.1,1.1,0.6,1.3c0.5,0.2,1.1-0.1,1.3-0.6c0.7-2.2,1.2-4.5,1.5-6.8
	c0.2,0,0.4-0.1,0.5-0.1c2.5-0.5,4.5-1.1,5.8-1.8c-0.9,2.9-3.3,5.5-6.8,7.7c-0.5,0.3-0.6,0.9-0.3,1.4c0.3,0.5,0.9,0.6,1.4,0.3
	c1.9-1.1,3.4-2.4,4.7-3.8c-0.6,1.5-1.3,3-2.2,4.4c-0.3,0.5-0.1,1.1,0.3,1.4c0.5,0.3,1.1,0.1,1.4-0.3c2.6-4.2,4-9,4-14
	C71.5,33.5,62.3,22.7,50.1,20.2z M52.4,62.1l3.1-1c0.3-0.1,0.6-0.4,0.6-0.7l0.7-2.7l0.7,2.7c0.1,0.3,0.3,0.6,0.6,0.7l3.1,1l-3.1,1
	c-0.3,0.1-0.6,0.4-0.6,0.7l-0.7,2.7l-0.7-2.7c-0.1-0.3-0.3-0.6-0.6-0.7L52.4,62.1z M60.6,41.1c-2.9-0.5-6.1-0.8-9.5-1
	c-0.2-3-0.4-5.9-0.8-8.5c3,0.4,5.9,1.2,8.5,2.3C59.6,36.1,60.2,38.6,60.6,41.1z M61.3,35.2c0.4,0.2,0.8,0.4,1.2,0.7
	c3.4,2.1,5.6,4.7,6.6,7.6c-1.4-0.7-3.3-1.3-5.8-1.8c-0.2,0-0.4-0.1-0.5-0.1C62.4,39.3,61.9,37.2,61.3,35.2z M20.2,46.3
	c0-0.4,1.2-1.6,6.6-2.8c-0.1,0.9-0.1,1.8-0.1,2.8s0,1.9,0.1,2.8C21.4,48,20.2,46.7,20.2,46.3z M27,51.2c0.3,2.2,0.7,4.3,1.3,6.3
	c-0.4-0.2-0.8-0.4-1.2-0.7c-3.4-2.1-5.6-4.7-6.6-7.6c1.4,0.7,3.3,1.3,5.8,1.8C26.7,51.1,26.9,51.2,27,51.2z M20.7,43.4
	c0.9-2.8,3.2-5.4,6.6-7.6c0.4-0.2,0.8-0.5,1.2-0.7c-0.6,2-1.1,4.1-1.3,6.3c-0.2,0-0.4,0.1-0.5,0.1C24,42.1,22,42.7,20.7,43.4z
	 M28.7,46.3c0-1.1,0-2.1,0.1-3.2c2.9-0.5,6.2-0.8,9.7-1c0,1.4-0.1,2.8-0.1,4.2s0,2.8,0.1,4.2c-3.5-0.2-6.8-0.5-9.7-1
	C28.8,48.5,28.7,47.4,28.7,46.3z M29.1,41.1c0.4-2.6,1-5,1.8-7.2c2.6-1.1,5.5-1.9,8.5-2.3c-0.4,2.6-0.6,5.4-0.8,8.5
	C35.2,40.3,32,40.7,29.1,41.1z M47.6,28.4c0.1,0.3,0.1,0.7,0.2,1c-1-0.1-2-0.1-3-0.1c-1,0-2,0-3,0.1c0.1-0.3,0.1-0.7,0.2-1
	c1.1-5.5,2.4-6.7,2.8-6.7C45.2,21.7,46.5,22.9,47.6,28.4z M41.9,22.1c-0.7,1.4-1.3,3.3-1.9,5.9c-0.1,0.5-0.2,1.1-0.3,1.6
	c-2.7,0.3-5.3,0.9-7.7,1.8C34.4,26.6,37.9,23.2,41.9,22.1z M41.5,31.5c1.1-0.1,2.2-0.1,3.3-0.1s2.2,0,3.3,0.1
	c0.4,2.6,0.7,5.5,0.8,8.6c-1.4,0-2.8-0.1-4.2-0.1s-2.8,0-4.2,0.1C40.8,37,41.1,34.1,41.5,31.5z M49.9,29.6c-0.1-0.6-0.2-1.1-0.3-1.6
	c-0.5-2.6-1.2-4.5-1.9-5.9c4,1.1,7.5,4.5,9.9,9.3C55.2,30.5,52.6,29.9,49.9,29.6z M41.6,16.3h6.5v3.5c-1.1-0.1-2.2-0.2-3.3-0.2
	s-2.2,0.1-3.3,0.2V16.3z M35.4,23.6c-1.2,1.1-2.4,2.5-3.5,4.1c-1,1.5-1.8,3.1-2.5,4.8c-1.1,0.5-2.2,1.1-3.2,1.7
	c-1.8,1.1-3.3,2.3-4.5,3.7C24.1,31.4,29.1,26.2,35.4,23.6z M21.7,54.9c1.2,1.3,2.7,2.6,4.5,3.7c1,0.6,2.1,1.2,3.2,1.7
	c0.7,1.7,1.6,3.3,2.5,4.8c1.1,1.6,2.2,2.9,3.5,4.1C29.1,66.5,24.1,61.3,21.7,54.9z M40.1,64.7c0.5,2.6,1.2,4.5,1.9,5.9
	c-4-1.1-7.5-4.5-9.9-9.3c2.4,0.8,5,1.4,7.7,1.8C39.9,63.6,40,64.2,40.1,64.7z M39.4,61c-3-0.4-5.9-1.2-8.5-2.3
	c-0.8-2.2-1.5-4.6-1.8-7.2c2.9,0.5,6.1,0.8,9.5,1C38.8,55.6,39.1,58.4,39.4,61z M44.8,50.7c-1.4,0-2.9,0-4.3-0.1
	c0-1.4-0.1-2.8-0.1-4.3s0-2.9,0.1-4.3c1.4,0,2.8-0.1,4.3-0.1s2.9,0,4.3,0.1c0,1.4,0.1,2.8,0.1,4.3c0,1.4,0,2.9-0.1,4.3
	C47.7,50.7,46.3,50.7,44.8,50.7z M51.1,50.5c0-1.4,0.1-2.8,0.1-4.2c0-1.4,0-2.8-0.1-4.2c3.5,0.2,6.8,0.5,9.7,1
	c0.1,1,0.1,2.1,0.1,3.2c0,1.1,0,2.1-0.1,3.2C57.9,50,54.6,50.3,51.1,50.5z M62.8,49.1c0.1-0.9,0.1-1.8,0.1-2.8c0-0.9,0-1.9-0.1-2.8
	c5.4,1.1,6.6,2.4,6.6,2.8S68.3,48,62.8,49.1z M63.5,34.2c-1-0.6-2.1-1.2-3.2-1.7c-0.7-1.7-1.6-3.3-2.5-4.8c-1.1-1.6-2.2-2.9-3.5-4.1
	c6.3,2.6,11.3,7.8,13.7,14.3C66.8,36.5,65.3,35.3,63.5,34.2z"/>
<path class="st1" d="M75.1,17.6l-5.3-1.8l-1.5-6c-0.1-0.4-0.5-0.8-1-0.8c-0.5,0-0.9,0.3-1,0.8l-1.5,6l-5.3,1.8
	c-0.4,0.1-0.7,0.5-0.7,0.9s0.3,0.8,0.7,0.9l5.3,1.8l1.5,6c0.1,0.4,0.5,0.8,1,0.8s0.9-0.3,1-0.8l1.5-6l5.3-1.8
	c0.4-0.1,0.7-0.5,0.7-0.9C75.8,18.1,75.5,17.7,75.1,17.6z M68.6,19.6C68.3,19.7,68,20,68,20.3L67.3,23l-0.7-2.7
	c-0.1-0.3-0.3-0.6-0.6-0.7l-3.1-1l3.1-1c0.3-0.1,0.6-0.4,0.6-0.7l0.7-2.7l0.7,2.7c0.1,0.3,0.3,0.6,0.6,0.7l3.1,1L68.6,19.6z"/>
<path class="st1" d="M20.7,32.4c0.5,0,0.9-0.3,1-0.8l1.5-6l5.3-1.8c0.4-0.1,0.7-0.5,0.7-0.9s-0.3-0.8-0.7-0.9l-5.3-1.8l-1.5-6
	c-0.1-0.4-0.5-0.8-1-0.8s-0.9,0.3-1,0.8l-1.5,6l-5.3,1.8c-0.4,0.1-0.7,0.5-0.7,0.9c0,0.4,0.3,0.8,0.7,0.9l5.3,1.8l1.5,6
	C19.8,32.1,20.2,32.4,20.7,32.4z M16.3,22.8l3.1-1c0.3-0.1,0.6-0.4,0.6-0.7l0.7-2.7l0.7,2.7c0.1,0.3,0.3,0.6,0.6,0.7l3.1,1l-3.1,1
	c-0.3,0.1-0.6,0.4-0.6,0.7l-0.7,2.7L20,24.6c-0.1-0.3-0.3-0.6-0.6-0.7L16.3,22.8z"/>
</svg>
