<?xml version="1.0" encoding="utf-8"?>
<!-- Generator: Adobe Illustrator 21.1.0, SVG Export Plug-In . SVG Version: 6.00 Build 0)  -->
<svg version="1.1" id="Layer_1" xmlns="http://www.w3.org/2000/svg" xmlns:xlink="http://www.w3.org/1999/xlink" x="0px" y="0px"
	 viewBox="0 0 90 90" style="enable-background:new 0 0 90 90;" xml:space="preserve">
<style type="text/css">
	.st0{fill:none;}
	.st1{fill:#E0E0E0;}
</style>
<rect class="st0" width="90" height="90"/>
<path class="st1" d="M78.1,78.5h-14v-6.6c3-0.4,5.8-2.3,7.3-5.2c2.1-0.5,4-1.7,5.4-3.4c1.5-1.9,2.4-4.4,2.4-6.9c0-3.8-2-7.4-5.1-9.2
	c-0.3-6.4-5.3-11.5-11.3-11.5c-1.9,0-3.8,0.5-5.4,1.5c-0.5,0.3-0.7,1-0.4,1.5c0.3,0.5,1,0.7,1.5,0.4c1.3-0.8,2.8-1.2,4.3-1.2
	c5,0,9.1,4.5,9.1,10c0,0.4,0.2,0.8,0.6,1c2.7,1.4,4.4,4.4,4.4,7.6c0,4.1-2.8,7.7-6.5,8.3c-0.3,0.1-0.6,0.3-0.8,0.6
	c-1.2,2.4-3.2,4-5.6,4.4v-9.5l5.3-4.9c0.4-0.4,0.5-1.1,0.1-1.5c-0.4-0.4-1.1-0.5-1.5-0.1l-3.8,3.5V50c0-0.6-0.5-1.1-1.1-1.1
	S62,49.4,62,50V63l-3.8-3.5c-0.4-0.4-1.1-0.4-1.5,0.1c-0.4,0.4-0.4,1.1,0.1,1.5L62,66v3.7c-2.5-0.3-4.8-2-6-4.6
	c-0.1-0.3-0.4-0.5-0.8-0.6c-3.6-0.8-6.2-4.2-6.2-8.2c0-3.2,1.6-6,4.2-7.5c0.3-0.2,0.6-0.6,0.5-1c0,0,0-0.1,0-0.1c0,0,0,0,0-0.1
	c0-2.2,0.7-4.4,1.9-6.1c0.3-0.5,0.2-1.2-0.3-1.5c-0.5-0.3-1.2-0.2-1.5,0.3c-1.4,2-2.2,4.4-2.3,6.9c-2.9,1.9-4.7,5.3-4.7,9
	c0,4.8,3.1,9,7.4,10.2c1.6,3,4.5,5,7.7,5.3v6.6h-0.7c-0.2-2.8-2.1-5.3-4.8-6.1c-0.8-1.8-2.5-3.1-4.4-3.5c-0.6-2.9-3.2-5-6.2-5
	c-2.3,0-4.4,1.2-5.5,3.2c-2.2,0.1-4.2,1.3-5.3,3.1c-0.7-2-2.5-3.4-4.7-3.5v-2.8c2.9-0.4,5.5-2.2,7-5c2-0.5,3.8-1.6,5.2-3.3
	c1.5-1.8,2.3-4.2,2.3-6.6c0-3.7-1.9-7.1-4.8-8.9c-0.3-6.1-5.1-11-10.8-11c-2.2,0-4.3,0.7-6.2,2.1c-0.5,0.4-0.6,1-0.2,1.5
	c0.4,0.5,1,0.6,1.5,0.2c1.4-1.1,3.1-1.6,4.9-1.6c4.8,0,8.7,4.3,8.7,9.5c0,0.4,0.2,0.8,0.6,1c2.6,1.3,4.2,4.2,4.2,7.3
	c0,3.9-2.7,7.3-6.2,7.9c-0.3,0.1-0.6,0.3-0.8,0.6c-1.1,2.3-3.1,3.8-5.3,4.2v-9.1l5.1-4.7c0.4-0.4,0.5-1.1,0.1-1.5
	c-0.4-0.4-1.1-0.5-1.5-0.1l-3.6,3.3v-6.8c0-0.6-0.5-1.1-1.1-1.1c-0.6,0-1.1,0.5-1.1,1.1v12.4l-3.6-3.3c-0.4-0.4-1.1-0.4-1.5,0.1
	c-0.4,0.4-0.4,1.1,0.1,1.5l5.1,4.7v3.5c-2.4-0.3-4.5-1.9-5.6-4.3c-0.1-0.3-0.4-0.5-0.8-0.6c-3.4-0.7-5.9-4-5.9-7.8
	c0-3,1.5-5.7,4-7.1c0.3-0.2,0.6-0.6,0.5-1c0,0,0-0.1,0-0.1c0,0,0,0,0,0c0-1.3,0.2-2.6,0.7-3.8c0.1-0.4,0.3-0.7,0.5-1
	c0.3-0.5,0.1-1.2-0.4-1.5c-0.5-0.3-1.2-0.1-1.5,0.4c-0.2,0.4-0.4,0.8-0.6,1.3c-0.5,1.3-0.8,2.7-0.9,4.2c-2.8,1.8-4.5,5.1-4.5,8.7
	c0,4.6,2.9,8.7,7.1,9.8c1.6,2.9,4.3,4.8,7.4,5.1v3.1c-1.2,0.4-2.2,1.2-2.8,2.3c-2.6,0.1-4.7,2.1-5.1,4.6c-1.9,0.9-3.4,2.6-3.9,4.6
	h-1.5c-0.6,0-1.1,0.5-1.1,1.1s0.5,1.1,1.1,1.1h2.4h24.3h18.6h17.9c0.6,0,1.1-0.5,1.1-1.1S78.7,78.5,78.1,78.5z M21.6,75.7
	c0.4-0.1,0.7-0.5,0.7-1c0.1-1.8,1.5-3.3,3.4-3.3c0.1,0,0.2,0,0.3,0c0.5,0,0.9-0.2,1.1-0.7c0.5-1.2,1.7-2,3-2c1.7,0,3.1,1.3,3.2,3
	c0,0.5,0.5,1,1,1c0.3,0,0.6,0.1,0.8,0.2c0,0,0,0,0,0c0.1,0,0.1,0,0.1,0.1c0,0,0,0,0,0c0,0,0.1,0,0.1,0.1c0,0,0,0,0,0
	c0.1,0,0.1,0.1,0.2,0.1c0,0,0.1,0,0.1,0.1c0,0,0,0,0.1,0c0,0,0.1,0,0.1,0.1c0,0,0,0,0.1,0c0,0,0.1,0.1,0.1,0.1c0,0,0,0,0,0
	c0.1,0.1,0.2,0.2,0.3,0.3c0,0,0,0,0,0c0,0,0.1,0.1,0.1,0.1c0,0,0,0,0,0c0.1,0.1,0.2,0.2,0.2,0.4c0,0,0,0,0,0.1c0,0,0,0.1,0.1,0.1
	c0,0,0,0,0,0.1c0,0.1,0.1,0.1,0.1,0.2c0,0,0,0,0,0c0.1,0.3,0.4,0.6,0.8,0.7c0.1,0,0.2,0,0.3,0.1c0,0,0.1,0,0.1,0
	c0.1,0,0.1,0,0.2,0.1c0,0,0.1,0,0.1,0c0.1,0,0.1,0,0.2,0.1c0,0,0.1,0,0.1,0.1c0,0,0.1,0.1,0.1,0.1c0,0,0.1,0,0.1,0.1
	c0,0,0.1,0.1,0.1,0.1c0,0,0.1,0,0.1,0.1c0,0,0.1,0.1,0.1,0.1c0,0,0.1,0,0.1,0.1c0,0,0.1,0.1,0.1,0.1c0,0,0.1,0,0.1,0.1
	c0,0.1,0.1,0.1,0.1,0.2c0,0,0,0,0,0.1c0.1,0.1,0.1,0.1,0.2,0.2c0,0,0,0,0,0.1c0,0.1,0.1,0.1,0.1,0.2c0,0,0,0.1,0,0.1
	c0,0.1,0.1,0.1,0.1,0.2c0,0,0,0.1,0,0.1c0,0.1,0,0.1,0.1,0.2c0,0,0,0.1,0,0.1c0,0.1,0,0.1,0.1,0.2c0,0,0,0.1,0,0.1
	c0,0.1,0,0.1,0,0.2c0,0,0,0.1,0,0.1c0,0,0,0,0,0.1H18.6C19.1,77.2,20.2,76.1,21.6,75.7z M42.7,78.5C42.7,78.5,42.7,78.5,42.7,78.5
	c0-0.2,0-0.3-0.1-0.4c0,0,0,0,0,0c0-0.1,0-0.3-0.1-0.4c0,0,0,0,0,0c0-0.1-0.1-0.2-0.1-0.4c0,0,0,0,0,0c0-0.1-0.1-0.2-0.1-0.3
	c0,0,0,0,0,0c0-0.1-0.1-0.2-0.1-0.3c0,0,0,0,0-0.1c-0.1-0.1-0.1-0.2-0.2-0.3c0,0,0,0,0,0c-0.1-0.1-0.1-0.2-0.2-0.3c0,0,0,0,0,0
	c-0.1-0.1-0.1-0.2-0.2-0.3c0,0,0,0,0,0c-0.1-0.1-0.2-0.2-0.3-0.3c0,0,0,0,0,0c-0.1-0.1-0.2-0.2-0.3-0.3c0,0,0,0,0,0
	c-0.1-0.1-0.2-0.2-0.3-0.2c0,0,0,0,0,0c-0.1-0.1-0.2-0.1-0.3-0.2c0,0,0,0,0,0c-0.1-0.1-0.2-0.1-0.3-0.2c0,0,0,0,0,0
	c-0.1-0.1-0.2-0.1-0.3-0.2c0,0,0,0,0,0c-0.1-0.1-0.2-0.1-0.3-0.2c0,0,0,0,0,0c-0.1,0-0.2-0.1-0.4-0.1c0,0,0,0,0,0c0,0,0,0,0,0
	c0-0.1-0.1-0.2-0.1-0.3c0,0-0.1-0.1-0.1-0.1c0-0.1-0.1-0.1-0.1-0.2c0,0-0.1-0.1-0.1-0.1c0,0-0.1-0.1-0.1-0.1c0-0.1-0.1-0.1-0.1-0.1
	c0,0,0-0.1-0.1-0.1c-0.1-0.1-0.2-0.2-0.3-0.3c0,0,0,0-0.1-0.1c0,0-0.1-0.1-0.2-0.1c0,0-0.1-0.1-0.1-0.1c0,0-0.1-0.1-0.1-0.1
	c0,0-0.1-0.1-0.1-0.1c0,0-0.1-0.1-0.1-0.1c-0.1,0-0.1-0.1-0.2-0.1c0,0,0,0-0.1,0c0.8-1.3,2.2-2.2,3.8-2.2c0.1,0,0.2,0,0.3,0
	c0.5,0,0.9-0.2,1.1-0.7c0.7-1.6,2.2-2.6,3.9-2.6c2.2,0,4,1.7,4.2,3.9c0,0.5,0.5,1,1,1c1.6,0.1,3.1,1.2,3.6,2.8
	c0.1,0.3,0.4,0.6,0.8,0.7c2,0.4,3.5,2.1,3.6,4.1L42.7,78.5L42.7,78.5z"/>
</svg>
