<?xml version="1.0" encoding="utf-8"?>
<!-- Generator: Adobe Illustrator 21.1.0, SVG Export Plug-In . SVG Version: 6.00 Build 0)  -->
<svg version="1.1" id="Layer_1" xmlns="http://www.w3.org/2000/svg" xmlns:xlink="http://www.w3.org/1999/xlink" x="0px" y="0px"
	 viewBox="0 0 90 90" style="enable-background:new 0 0 90 90;" xml:space="preserve">
<style type="text/css">
	.st0{fill:none;}
	.st1{fill:#E0E0E0;}
</style>
<rect class="st0" width="90" height="90"/>
<g>
	<path class="st1" d="M58.8,74.6H29.1c-0.6,0-1.1,0.5-1.1,1.1v2.1c0,0.6,0.5,1.1,1.1,1.1s1.1-0.5,1.1-1.1v-1.1h28.6
		c0.6,0,1.1-0.5,1.1-1.1S59.4,74.6,58.8,74.6L58.8,74.6z"/>
	<path class="st1" d="M36.6,41.7c0,0.6,0.5,1.1,1.1,1.1h4.2c0.6,0,1.1-0.5,1.1-1.1v-6.4c0-0.6-0.5-1.1-1.1-1.1h-4.2
		c-0.6,0-1.1,0.5-1.1,1.1V41.7z M38.7,36.4h2.1v4.2h-2.1V36.4z"/>
	<path class="st1" d="M27,27.9H14.3c-0.6,0-1.1,0.5-1.1,1.1v21.2c0,0.6,0.5,1.1,1.1,1.1s1.1-0.5,1.1-1.1V30H27
		c0.6,0,1.1-0.5,1.1-1.1C28.1,28.4,27.6,27.9,27,27.9L27,27.9z"/>
	<path class="st1" d="M64.1,67.1c0,0.6,0.5,1.1,1.1,1.1h4.2c0.6,0,1.1-0.5,1.1-1.1v-6.4c0-0.6-0.5-1.1-1.1-1.1h-4.2
		c-0.6,0-1.1,0.5-1.1,1.1V67.1z M66.3,61.8h2.1V66h-2.1V61.8z"/>
	<path class="st1" d="M18.5,53.4c-5.2,0-5.3,13.6-5.3,13.8c0,2.6,1.8,4.7,4.2,5.2v5.4c0,0.6,0.5,1.1,1.1,1.1s1.1-0.5,1.1-1.1v-5.4
		c2.4-0.5,4.2-2.6,4.2-5.2C23.8,67,23.8,53.4,18.5,53.4L18.5,53.4z M18.5,70.3c-1.8,0-3.2-1.4-3.2-3.2c0-5.3,1.4-11.7,3.2-11.7
		s3.2,6.4,3.2,11.7C21.7,68.9,20.3,70.3,18.5,70.3L18.5,70.3z"/>
	<path class="st1" d="M24.9,47h-4.2c-0.6,0-1.1,0.5-1.1,1.1v2.1c0,0.6,0.5,1.1,1.1,1.1s1.1-0.5,1.1-1.1v-1.1h2.1v5.3
		c0,0.6,0.5,1.1,1.1,1.1s1.1-0.5,1.1-1.1V48C26,47.5,25.5,47,24.9,47L24.9,47z"/>
	<path class="st1" d="M65.2,42.8h4.2c0.6,0,1.1-0.5,1.1-1.1v-6.4c0-0.6-0.5-1.1-1.1-1.1h-4.2c-0.6,0-1.1,0.5-1.1,1.1v6.4
		C64.1,42.3,64.6,42.8,65.2,42.8L65.2,42.8z M66.3,36.4h2.1v4.2h-2.1V36.4z"/>
	<path class="st1" d="M24.9,34.3h-4.2c-0.6,0-1.1,0.5-1.1,1.1v6.4c0,0.6,0.5,1.1,1.1,1.1h4.2c0.6,0,1.1-0.5,1.1-1.1v-6.4
		C26,34.8,25.5,34.3,24.9,34.3L24.9,34.3z M23.8,40.6h-2.1v-4.2h2.1V40.6z"/>
	<path class="st1" d="M47.2,41.7c0,0.6,0.5,1.1,1.1,1.1h4.2c0.6,0,1.1-0.5,1.1-1.1v-6.4c0-0.6-0.5-1.1-1.1-1.1h-4.2
		c-0.6,0-1.1,0.5-1.1,1.1V41.7z M49.3,36.4h2.1v4.2h-2.1V36.4z"/>
	<path class="st1" d="M75.8,27.9H63.1c-0.6,0-1.1,0.5-1.1,1.1s0.5,1.1,1.1,1.1h11.7v42.6c-0.3-0.1-0.7-0.2-1.1-0.2
		c-0.2,0-0.4,0-0.5,0c-0.7-1.3-2.1-2.2-3.7-2.2s-3,0.8-3.7,2.2c-0.2,0-0.4,0-0.5,0c-1.8,0-3.2,1.4-3.2,3.2c0,1.8,1.4,3.2,3.2,3.2
		h8.5c1.8,0,3.2-1.4,3.2-3.2V29C76.9,28.4,76.4,27.9,75.8,27.9L75.8,27.9z M73.7,76.7h-8.5c-0.6,0-1.1-0.5-1.1-1.1s0.5-1.1,1.1-1.1
		c0.2,0,0.4,0.1,0.6,0.2c0.3,0.2,0.7,0.2,1,0.1s0.6-0.4,0.6-0.7c0.2-1,1.1-1.6,2.1-1.6s1.8,0.7,2.1,1.6c0.1,0.3,0.3,0.6,0.6,0.7
		c0.3,0.1,0.7,0.1,1-0.1c0.7-0.4,1.6,0.1,1.6,0.9C74.7,76.2,74.3,76.7,73.7,76.7L73.7,76.7z"/>
	<path class="st1" d="M48.2,30h4.2c0.6,0,1.1-0.5,1.1-1.1v-6.4c0-0.6-0.5-1.1-1.1-1.1h-4.2c-0.6,0-1.1,0.5-1.1,1.1V29
		C47.2,29.6,47.6,30,48.2,30L48.2,30z M49.3,23.7h2.1v4.2h-2.1V23.7z"/>
	<path class="st1" d="M47.2,54.4c0,0.6,0.5,1.1,1.1,1.1h4.2c0.6,0,1.1-0.5,1.1-1.1V48c0-0.6-0.5-1.1-1.1-1.1h-4.2
		c-0.6,0-1.1,0.5-1.1,1.1V54.4z M49.3,49.1h2.1v4.2h-2.1V49.1z"/>
	<path class="st1" d="M37.6,30h4.2c0.6,0,1.1-0.5,1.1-1.1v-6.4c0-0.6-0.5-1.1-1.1-1.1h-4.2c-0.6,0-1.1,0.5-1.1,1.1V29
		C36.6,29.6,37,30,37.6,30L37.6,30z M38.7,23.7h2.1v4.2h-2.1V23.7z"/>
	<path class="st1" d="M44.3,66.4c-0.2,0.2-0.3,0.5-0.3,0.8s0.1,0.6,0.3,0.8c0.2,0.2,0.5,0.3,0.8,0.3s0.6-0.1,0.8-0.3
		c0.2-0.2,0.3-0.5,0.3-0.8s-0.1-0.6-0.3-0.8C45.4,66,44.7,66,44.3,66.4L44.3,66.4z"/>
	<path class="st1" d="M36.6,54.4c0,0.6,0.5,1.1,1.1,1.1h4.2c0.6,0,1.1-0.5,1.1-1.1V48c0-0.6-0.5-1.1-1.1-1.1h-4.2
		c-0.6,0-1.1,0.5-1.1,1.1V54.4z M38.7,49.1h2.1v4.2h-2.1V49.1z"/>
	<path class="st1" d="M34.4,60.8c0,0.6,0.5,1.1,1.1,1.1h3.2v9.5c0,0.6,0.5,1.1,1.1,1.1s1.1-0.5,1.1-1.1v-9.5h8.5v9.5
		c0,0.6,0.5,1.1,1.1,1.1s1.1-0.5,1.1-1.1v-9.5h3.2c0.6,0,1.1-0.5,1.1-1.1s-0.5-1.1-1.1-1.1H35.5C34.9,59.7,34.4,60.2,34.4,60.8
		L34.4,60.8z"/>
	<path class="st1" d="M64.1,54.4c0,0.6,0.5,1.1,1.1,1.1h4.2c0.6,0,1.1-0.5,1.1-1.1V48c0-0.6-0.5-1.1-1.1-1.1h-4.2
		c-0.6,0-1.1,0.5-1.1,1.1V54.4z M66.3,49.1h2.1v4.2h-2.1V49.1z"/>
	<path class="st1" d="M58.8,15.2H31.3c-0.6,0-1.1,0.5-1.1,1.1v55.1c0,0.6,0.5,1.1,1.1,1.1s1.1-0.5,1.1-1.1V17.3h25.4v54.1
		c0,0.6,0.5,1.1,1.1,1.1S60,72,60,71.4V16.3C59.9,15.7,59.4,15.2,58.8,15.2L58.8,15.2z"/>
</g>
</svg>
